<?xml version="1.0" encoding="utf-8"?>
<!-- Generator: Adobe Illustrator 19.0.0, SVG Export Plug-In . SVG Version: 6.00 Build 0)  -->
<svg version="1.1" id="Calque_1" xmlns="http://www.w3.org/2000/svg" xmlns:xlink="http://www.w3.org/1999/xlink" x="0px" y="0px"
	 viewBox="0 0 200 200" style="enable-background:new 0 0 200 200;" xml:space="preserve">
<style type="text/css">
	.st0{fill:#FFBC00;}
</style>
<g id="XMLID_136_">
	<path id="XMLID_145_" class="st0" d="M100.1,142.4c-20.5,0-37.3-16.7-37.3-37.3s16.7-37.3,37.3-37.3c20.5,0,37.3,16.7,37.3,37.3
		S120.6,142.4,100.1,142.4z M100.1,75.3c-16.4,0-29.8,13.4-29.8,29.8S83.7,135,100.1,135c16.4,0,29.8-13.4,29.8-29.8
		S116.5,75.3,100.1,75.3z"/>
	<path id="XMLID_144_" class="st0" d="M100.1,61.9c-2.1,0-4-1.7-4-3.7V38c0-2.1,1.9-3.7,4-3.7s4,1.7,4,3.7v20.1
		C104.1,60.2,102.2,61.9,100.1,61.9z"/>
	<path id="XMLID_143_" class="st0" d="M100.1,175.9c-2.1,0-4-1.7-4-3.7v-20.1c0-2.1,1.9-3.7,4-3.7s4,1.7,4,3.7v20.1
		C104.1,174.2,102.2,175.9,100.1,175.9z"/>
	<path id="XMLID_142_" class="st0" d="M53.1,109H33c-2.1,0-3.7-1.9-3.7-4c0-2.1,1.7-4,3.7-4h20.1c2.1,0,3.7,1.9,3.7,4
		C56.8,107.1,55.2,109,53.1,109z"/>
	<path id="XMLID_141_" class="st0" d="M167.1,109H147c-2.1,0-3.7-1.9-3.7-4c0-2.1,1.7-4,3.7-4h20.1c2.1,0,3.7,1.9,3.7,4
		C170.8,107.1,169.2,109,167.1,109z"/>
	<path id="XMLID_140_" class="st0" d="M133.1,75.8c-1,0-1.9-0.4-2.6-1.1c-1.5-1.5-1.5-3.8,0-5.3L144.9,55c1.5-1.5,3.8-1.5,5.3,0
		s1.5,3.8,0,5.3l-14.4,14.4C135,75.5,134,75.8,133.1,75.8z"/>
	<path id="XMLID_139_" class="st0" d="M52.6,156.3c-1,0-1.9-0.4-2.6-1.1c-1.5-1.5-1.5-3.8,0-5.3l14.4-14.4c1.5-1.5,3.8-1.5,5.3,0
		s1.5,3.8,0,5.3l-14.4,14.4C54.5,155.9,53.6,156.3,52.6,156.3z"/>
	<path id="XMLID_138_" class="st0" d="M67.1,75.8c-1,0-1.9-0.4-2.6-1.1L50.1,60.3c-1.5-1.5-1.5-3.8,0-5.3s3.8-1.5,5.3,0l14.4,14.4
		c1.5,1.5,1.5,3.8,0,5.3C69,75.5,68,75.8,67.1,75.8z"/>
	<path id="XMLID_137_" class="st0" d="M147.5,156.3c-1,0-1.9-0.4-2.6-1.1l-14.4-14.4c-1.5-1.5-1.5-3.8,0-5.3s3.8-1.5,5.3,0
		l14.4,14.4c1.5,1.5,1.5,3.8,0,5.3C149.4,155.9,148.4,156.3,147.5,156.3z"/>
</g>
</svg>
