<?xml version="1.0" encoding="utf-8"?>
<!-- Generator: Adobe Illustrator 19.0.0, SVG Export Plug-In . SVG Version: 6.00 Build 0)  -->
<svg version="1.1" id="Calque_1" xmlns="http://www.w3.org/2000/svg" xmlns:xlink="http://www.w3.org/1999/xlink" x="0px" y="0px"
	 viewBox="0 0 200 200" style="enable-background:new 0 0 200 200;" xml:space="preserve">
<style type="text/css">
	.st0{fill:#FFBC00;}
	.st1{fill:#FFFFFF;}
</style>
<g id="XMLID_125_">
	<path id="XMLID_135_" class="st0" d="M138.5,119.7c-1.1,0-2.2-0.5-2.9-1.4c-1.3-1.6-1.1-3.9,0.5-5.2c7-5.7,11-14.1,11-23.2
		c0-16.4-13.4-29.8-29.8-29.8c-15.2,0-27.9,11.4-29.6,26.5c-0.2,2-2.1,3.5-4.1,3.3s-3.5-2.1-3.3-4.1c2.1-18.9,18-33.1,37-33.1
		c20.5,0,37.3,16.7,37.3,37.3c0,11.3-5,21.8-13.8,28.9C140.1,119.5,139.4,119.7,138.5,119.7z"/>
	<path id="XMLID_134_" class="st0" d="M116.9,46.7c-2.1,0-4-1.7-4-3.7V22.8c0-2.1,1.9-3.7,4-3.7s4,1.7,4,3.7V43
		C120.9,45,119,46.7,116.9,46.7z"/>
	<path id="XMLID_133_" class="st0" d="M70.4,94H50.3c-2.1,0-3.7-1.4-3.7-3.5s1.7-3.5,3.7-3.5h20.1c2.1,0,3.7,1.4,3.7,3.5
		S72.5,94,70.4,94z"/>
	<path id="XMLID_132_" class="st0" d="M184.5,94h-20.1c-2.1,0-3.7-1.4-3.7-3.5s1.7-3.5,3.7-3.5h20.1c2.1,0,3.7,1.4,3.7,3.5
		S186.5,94,184.5,94z"/>
	<path id="XMLID_131_" class="st0" d="M150.4,60.7c-1,0-1.9-0.4-2.6-1.1c-1.5-1.5-1.5-3.8,0-5.3l14.4-14.4c1.5-1.5,3.8-1.5,5.3,0
		s1.5,3.8,0,5.3L153,59.6C152.3,60.3,151.3,60.7,150.4,60.7z"/>
	<path id="XMLID_130_" class="st0" d="M84.4,60.7c-1,0-1.9-0.4-2.6-1.1L67.4,45.2c-1.5-1.5-1.5-3.8,0-5.3s3.8-1.5,5.3,0L87,54.3
		c1.5,1.5,1.5,3.8,0,5.3C86.3,60.3,85.3,60.7,84.4,60.7z"/>
	<path id="XMLID_129_" class="st0" d="M164.8,141.1c-1,0-1.9-0.4-2.6-1.1l-14.4-14.4c-1.5-1.5-1.5-3.8,0-5.3s3.8-1.5,5.3,0
		l14.4,14.4c1.5,1.5,1.5,3.8,0,5.3C166.7,140.7,165.8,141.1,164.8,141.1z"/>
	<path id="XMLID_126_" class="st1" d="M42.8,175.6c-14.3-0.1-26-11.8-26-26.1c0-12.4,8.6-22.8,20.2-25.4c-0.2-1-0.3-2.1-0.3-3.2
		c0-9.8,8-17.7,17.7-17.7c3.2,0,6.4,0.9,9.1,2.5c7.4-9.8,18.9-15.6,31.5-15.6c19.6,0,36.1,14.4,39,33.5c13.6,0.9,24.3,12.2,24.3,26
		c0,14.2-11.6,25.9-25.8,26.1L42.8,175.6z M54.5,110.6c-5.7,0-10.3,4.6-10.3,10.3c0,1.6,0.4,3.2,1.1,4.6c0.6,1.1,0.5,2.5-0.1,3.6
		s-1.8,1.8-3.1,1.8c-10,0.4-17.9,8.6-17.9,18.6c0,10.2,8.3,18.6,18.6,18.6h89.7c10.1-0.1,18.4-8.5,18.4-18.6
		c0-10.3-8.4-18.6-18.6-18.6c-0.4,0-0.8,0-1.3,0.1c-1,0.1-2-0.3-2.7-0.9c-0.7-0.7-1.2-1.6-1.3-2.6c-1.1-16.8-15.1-30-32-30
		c-11.3,0-21.6,5.8-27.4,15.5c-0.6,1-1.6,1.6-2.7,1.8c-1.1,0.1-2.3-0.3-3.1-1.1C59.9,111.7,57.3,110.6,54.5,110.6z"/>
</g>
</svg>
