<?xml version="1.0" encoding="utf-8"?>
<!-- Generator: Adobe Illustrator 19.0.0, SVG Export Plug-In . SVG Version: 6.00 Build 0)  -->
<svg version="1.1" id="Calque_1" xmlns="http://www.w3.org/2000/svg" xmlns:xlink="http://www.w3.org/1999/xlink" x="0px" y="0px"
	 viewBox="-379 181 200 200" style="enable-background:new -379 181 200 200;" xml:space="preserve">
<style type="text/css">
	.st0{fill:#FFBC00;}
	.st1{fill:#FFFFFF;}
</style>
<g id="XMLID_110_">
	<path id="XMLID_124_" class="st0" d="M-240.3,281.9c-0.9,0-1.9-0.4-2.6-1.1c-1.3-1.4-1.3-3.7,0.1-5c5.4-5.1,8.4-12,8.4-19.5
		c0-14.8-12-26.8-26.8-26.8c-13,0-24.1,9.3-26.4,22c-0.3,1.9-2.2,3.2-4.1,2.9c-1.9-0.3-3.2-2.2-2.9-4.1c2.9-16.1,17-27.9,33.4-27.9
		c18.7,0,33.9,15.2,33.9,33.9c0,9.4-3.8,18.1-10.6,24.6C-238.5,281.6-239.4,281.9-240.3,281.9z"/>
	<path id="XMLID_123_" class="st0" d="M-271.7,219.4c-1.6,0-3.1-1.1-3.5-2.8l-3.7-17.1c-0.4-1.9,0.8-3.8,2.7-4.2
		c1.9-0.4,3.8,0.8,4.2,2.7l3.7,17.1c0.4,1.9-0.8,3.8-2.7,4.2C-271.2,219.4-271.4,219.4-271.7,219.4z"/>
	<path id="XMLID_122_" class="st0" d="M-219.6,252.5c-1.6,0-3.1-1.1-3.5-2.8c-0.4-1.9,0.8-3.8,2.7-4.2l18.2-4
		c1.9-0.4,3.8,0.8,4.2,2.7c0.4,1.9-0.8,3.8-2.7,4.2l-18.2,4C-219.1,252.5-219.4,252.5-219.6,252.5z"/>
	<path id="XMLID_121_" class="st0" d="M-238.7,225.4c-0.7,0-1.3-0.2-1.9-0.6c-1.6-1.1-2.1-3.2-1.1-4.9l10-15.6
		c1.1-1.6,3.2-2.1,4.9-1.1c1.6,1.1,2.1,3.2,1.1,4.9l-10,15.6C-236.4,224.8-237.5,225.4-238.7,225.4z"/>
	<path id="XMLID_120_" class="st0" d="M-297.1,238.1c-0.7,0-1.3-0.2-1.9-0.6l-15.6-10c-1.6-1.1-2.1-3.2-1.1-4.9
		c1.1-1.6,3.2-2.1,4.9-1.1l15.6,10c1.6,1.1,2.1,3.2,1.1,4.9C-294.8,237.6-295.9,238.1-297.1,238.1z"/>
	<path id="XMLID_119_" class="st0" d="M-210.8,293.9c-0.7,0-1.3-0.2-1.9-0.6l-15.6-10c-1.6-1.1-2.1-3.2-1.1-4.9
		c1.1-1.6,3.2-2.1,4.9-1.1l15.6,10c1.6,1.1,2.1,3.2,1.1,4.9C-208.4,293.3-209.6,293.9-210.8,293.9z"/>
	<path id="XMLID_116_" class="st1" d="M-328.8,334.1c-13.1-0.1-23.7-10.8-23.7-23.8c0-11.3,7.7-20.7,18.3-23.2
		c-0.2-0.9-0.2-1.8-0.2-2.8c0-9,7.3-16.2,16.2-16.2c2.9,0,5.7,0.8,8.2,2.2c6.8-8.9,17.2-14.1,28.6-14.1c17.8,0,32.8,13.1,35.5,30.3
		c12.3,0.9,22.1,11.2,22.1,23.7c0,13-10.6,23.7-23.6,23.8L-328.8,334.1z M-318.2,275.2c-5,0-9.2,4.1-9.2,9.2c0,1.4,0.3,2.8,1,4.1
		c0.5,1.1,0.5,2.4-0.1,3.4s-1.7,1.7-2.9,1.7c-9,0.4-16,7.7-16,16.7c0,9.2,7.5,16.7,16.6,16.7h81.3c9.1-0.1,16.5-7.6,16.5-16.7
		c0-9.2-7.5-16.7-16.7-16.7c-0.3,0-0.7,0-1.2,0c-0.9,0.1-1.9-0.2-2.6-0.9c-0.7-0.6-1.1-1.5-1.2-2.4c-1-15.1-13.6-27-28.8-27
		c-10.2,0-19.4,5.2-24.7,13.9c-0.6,0.9-1.5,1.6-2.6,1.7c-1.1,0.1-2.2-0.2-2.9-1C-313.4,276.2-315.7,275.2-318.2,275.2z"/>
	<path id="XMLID_115_" class="st1" d="M-297.7,371.1c-0.9,0-1.8-0.3-2.5-1c-1.4-1.4-1.4-3.6,0-5l8.5-8.4c1.4-1.4,3.6-1.4,5,0
		c1.4,1.4,1.4,3.6,0,5l-8.5,8.4C-295.9,370.8-296.8,371.1-297.7,371.1z"/>
	<path id="XMLID_114_" class="st1" d="M-327.1,351.9c-0.9,0-1.8-0.3-2.5-1c-1.4-1.4-1.4-3.6,0-5l5.3-5.3c1.4-1.4,3.6-1.4,5,0
		c1.4,1.4,1.4,3.6,0,5l-5.3,5.3C-325.3,351.5-326.2,351.9-327.1,351.9z"/>
	<path id="XMLID_113_" class="st1" d="M-280.1,351.9c-0.9,0-1.8-0.3-2.5-1c-1.4-1.4-1.4-3.6,0-5l5.3-5.3c1.4-1.4,3.6-1.4,5,0
		c1.4,1.4,1.4,3.6,0,5l-5.3,5.3C-278.3,351.5-279.2,351.9-280.1,351.9z"/>
	<path id="XMLID_112_" class="st1" d="M-264.9,360.4c-0.9,0-1.8-0.3-2.5-1c-1.4-1.4-1.4-3.6,0-5l13.8-13.8c1.4-1.4,3.6-1.4,5,0
		c1.4,1.4,1.4,3.6,0,5l-13.8,13.8C-263.1,360-264,360.4-264.9,360.4z"/>
	<path id="XMLID_111_" class="st1" d="M-315.9,364.1c-0.9,0-1.8-0.3-2.5-1c-1.4-1.4-1.4-3.6,0-5l17.6-17.5c1.4-1.4,3.6-1.4,5,0
		c1.4,1.4,1.4,3.6,0,5l-17.6,17.4C-314.1,363.7-315,364.1-315.9,364.1z"/>
</g>
</svg>
