<?xml version="1.0" encoding="utf-8"?>
<!-- Generator: Adobe Illustrator 19.0.0, SVG Export Plug-In . SVG Version: 6.00 Build 0)  -->
<svg version="1.1" id="Calque_1" xmlns="http://www.w3.org/2000/svg" xmlns:xlink="http://www.w3.org/1999/xlink" x="0px" y="0px"
	 viewBox="0 0 200 200" style="enable-background:new 0 0 200 200;" xml:space="preserve">
<style type="text/css">
	.st0{fill:#FFFFFF;}
</style>
<g>
	<g id="XMLID_26_">
		<path id="XMLID_30_" class="st0" d="M65,151.3c-1,0-1.9-0.4-2.6-1.1c-1.5-1.5-1.5-3.8,0-5.3l23.1-23c1.5-1.5,3.8-1.5,5.3,0
			s1.5,3.8,0,5.3l-23.1,23C66.9,150.9,66,151.3,65,151.3z"/>
		<path id="XMLID_29_" class="st0" d="M88.1,151.3c-1,0-1.9-0.4-2.6-1.1l-23-23.1c-1.5-1.5-1.5-3.8,0-5.3s3.8-1.5,5.3,0l23,23.1
			c1.5,1.5,1.5,3.8,0,5.3C90,150.9,89,151.3,88.1,151.3z"/>
		<path id="XMLID_28_" class="st0" d="M95.2,139L95.2,139H57.9c-2.1,0-3.7-1.4-3.7-3.5s1.7-3.5,3.7-3.5l0,0l37.3,0.2
			c2.1,0,3.7,1.4,3.7,3.4C98.9,137.6,97.3,139,95.2,139z"/>
		<path id="XMLID_27_" class="st0" d="M76.6,159L76.6,159c-2.1,0-3.7-2-3.7-4v-37.8c0-2.1,1.7-4.2,3.7-4.2l0,0c2.1,0,3.7,2,3.7,4.1
			v37.7C80.3,156.9,78.6,159,76.6,159z"/>
	</g>
	<g id="XMLID_21_">
		<path id="XMLID_25_" class="st0" d="M79,95.6c-1.4,0-2.8-0.5-3.8-1.6c-2.1-2.1-2.1-5.5,0-7.6l33.3-33.3c2.1-2.1,5.5-2.1,7.6,0
			s2.1,5.5,0,7.6L82.8,94C81.8,95.1,80.4,95.6,79,95.6z"/>
		<path id="XMLID_24_" class="st0" d="M112.3,95.6c-1.4,0-2.8-0.5-3.8-1.6L75.2,60.7c-2.1-2.1-2.1-5.5,0-7.6s5.5-2.1,7.6,0
			l33.3,33.3c2.1,2.1,2.1,5.5,0,7.6C115.1,95.1,113.7,95.6,112.3,95.6z"/>
		<path id="XMLID_23_" class="st0" d="M122.6,79L122.6,79H68.8c-3,0-5.4-2.5-5.4-5.5s2.4-5.5,5.4-5.5l0,0l53.8,0.1
			c3,0,5.4,2.5,5.4,5.4C128,76.5,125.6,79,122.6,79z"/>
		<path id="XMLID_22_" class="st0" d="M95.7,106L95.7,106c-3,0-5.4-2.5-5.4-5.5v-54c0-3,2.4-5.5,5.4-5.5l0,0c3,0,5.4,2.5,5.4,5.5v54
			C101.1,103.5,98.6,106,95.7,106z"/>
	</g>
	<path id="XMLID_20_" class="st0" d="M116.7,134.8c-1.3,0-2.5-0.7-3.2-1.9c-1-1.8-0.4-4.1,1.3-5.1l22.5-13.1c1.8-1,4.1-0.4,5.1,1.3
		c1,1.8,0.4,4.1-1.3,5.1l-22.5,13.1C118,134.6,117.4,134.8,116.7,134.8z"/>
	<path id="XMLID_19_" class="st0" d="M139.4,134.4c-0.6,0-1.2-0.1-1.8-0.5l-22.9-12.4c-1.8-1-2.5-3.2-1.5-5.1c1-1.8,3.2-2.5,5.1-1.5
		l22.9,12.4c1.8,1,2.5,3.2,1.5,5.1C142.1,133.7,140.8,134.4,139.4,134.4z"/>
	<path id="XMLID_18_" class="st0" d="M128,141L128,141c-2.1,0-3.7-1.7-3.7-3.7v-25.6c0-2.1,1.7-3.7,3.7-3.7l0,0
		c2.1,0,3.7,1.6,3.7,3.7v25.6C131.7,139.4,130,141,128,141z"/>
</g>
</svg>
