<?xml version="1.0" encoding="utf-8"?>
<!-- Generator: Adobe Illustrator 19.0.0, SVG Export Plug-In . SVG Version: 6.00 Build 0)  -->
<svg version="1.1" id="Calque_1" xmlns="http://www.w3.org/2000/svg" xmlns:xlink="http://www.w3.org/1999/xlink" x="0px" y="0px"
	 viewBox="0 0 200 200" style="enable-background:new 0 0 200 200;" xml:space="preserve">
<style type="text/css">
	.st0{fill:#FFFFFF;}
</style>
<g>
	<path id="XMLID_60_" class="st0" d="M141.2,121.3L141.2,121.3l-48.3,0.1c-2.1,0-3.7-1.5-3.7-3.5c0-2.1,1.7-3.5,3.7-3.5l0,0
		l48.3-0.1c2.1,0,3.7,1.5,3.7,3.6C144.9,119.8,143.3,121.3,141.2,121.3z"/>
	<path id="XMLID_50_" class="st0" d="M79,121.3L79,121.3l-26.7,0.1c-2.1,0-3.7-1.5-3.7-3.5c0-2.1,1.7-3.5,3.7-3.5l0,0l26.7-0.1
		c2.1,0,3.7,1.5,3.7,3.6C82.7,119.8,81,121.3,79,121.3z"/>
	<path id="XMLID_150_" class="st0" d="M157,96.9L157,96.9L92.9,97c-2.1,0-3.7-1.5-3.7-3.5c0-2.1,1.7-3.5,3.7-3.5l0,0l64.1-0.1
		c2.1,0,3.7,1.5,3.7,3.6C160.7,95.4,159.1,96.9,157,96.9z"/>
	<path id="XMLID_149_" class="st0" d="M79,96.9L79,96.9L52.3,97c-2.1,0-3.7-1.5-3.7-3.5c0-2.1,1.7-3.5,3.7-3.5l0,0L79,89.9
		c2.1,0,3.7,1.5,3.7,3.6C82.7,95.4,81,96.9,79,96.9z"/>
	<path id="XMLID_103_" class="st0" d="M124.7,146.1L124.7,146.1L98,146.2c-2.1,0-3.7-1.5-3.7-3.5c0-2.1,1.7-3.5,3.7-3.5l0,0
		l26.7-0.1c2.1,0,3.7,1.5,3.7,3.6C128.4,144.6,126.7,146.1,124.7,146.1z"/>
	<path id="XMLID_147_" class="st0" d="M141.2,73.2L141.2,73.2l-48.3,0.1c-2.1,0-3.7-1.5-3.7-3.5c0-2.1,1.7-3.5,3.7-3.5l0,0l48.3-0.1
		c2.1,0,3.7,1.5,3.7,3.6C144.9,71.7,143.3,73.2,141.2,73.2z"/>
	<path id="XMLID_1_" class="st0" d="M111.4,134L111.4,134l-48.3,0.1c-2.1,0-3.7-1.5-3.7-3.5c0-2.1,1.7-3.5,3.7-3.5l0,0l48.3-0.1
		c2.1,0,3.7,1.5,3.7,3.6C115.1,132.5,113.5,134,111.4,134z"/>
	<path id="XMLID_71_" class="st0" d="M149,85.2L149,85.2l-38.7,0.1c-2.1,0-3.7-1.5-3.7-3.5c0-2.1,1.7-3.5,3.7-3.5l0,0l38.7-0.1
		c2.1,0,3.7,1.5,3.7,3.6C152.7,83.7,151.1,85.2,149,85.2z"/>
	<path id="XMLID_61_" class="st0" d="M119.5,61.2L119.5,61.2l-38.7,0.1c-2.1,0-3.7-1.5-3.7-3.5c0-2.1,1.7-3.5,3.7-3.5l0,0l38.7-0.1
		c2.1,0,3.7,1.5,3.7,3.6C123.2,59.7,121.6,61.2,119.5,61.2z"/>
	<path id="XMLID_70_" class="st0" d="M96.4,85.2L96.4,85.2l-36.3,0.1c-2.1,0-3.7-1.5-3.7-3.5c0-2.1,1.7-3.5,3.7-3.5l0,0l36.3-0.1
		c2.1,0,3.7,1.5,3.7,3.6C100.1,83.7,98.4,85.2,96.4,85.2z"/>
	<path id="XMLID_148_" class="st0" d="M149,108.7L149,108.7l-38.7,0.1c-2.1,0-3.7-1.5-3.7-3.5c0-2.1,1.7-3.5,3.7-3.5l0,0l38.7-0.1
		c2.1,0,3.7,1.5,3.7,3.6C152.7,107.2,151.1,108.7,149,108.7z"/>
	<path id="XMLID_146_" class="st0" d="M96.4,108.7L96.4,108.7l-53.1,0.1c-2.1,0-3.7-1.5-3.7-3.5c0-2.1,1.7-3.5,3.7-3.5l0,0l53.1-0.1
		c2.1,0,3.7,1.5,3.7,3.6C100.1,107.2,98.4,108.7,96.4,108.7z"/>
</g>
</svg>
