<?xml version="1.0" encoding="utf-8"?>
<!-- Generator: Adobe Illustrator 19.0.0, SVG Export Plug-In . SVG Version: 6.00 Build 0)  -->
<svg version="1.1" id="Calque_1" xmlns="http://www.w3.org/2000/svg" xmlns:xlink="http://www.w3.org/1999/xlink" x="0px" y="0px"
	 viewBox="0 0 200 200" style="enable-background:new 0 0 200 200;" xml:space="preserve">
<style type="text/css">
	.st0{fill:#FFFFFF;}
</style>
<path id="XMLID_51_" class="st0" d="M105.3,145.6c-24.7,0-44.7-20.1-44.7-44.7s20.1-44.7,44.7-44.7c1.2,0,2.4,0,3.6,0.1
	c1.3,0.1,2.5,0.9,3.1,2.1s0.4,2.6-0.3,3.7c-4.4,6.3-6.8,13.7-6.8,21.4c0,9.4,3.5,18.4,9.9,25.3c6.4,6.9,15,11.1,24.3,11.8
	c1.3,0.1,2.5,0.9,3.1,2.1c0.6,1.2,0.4,2.6-0.3,3.7C133.5,138.5,119.8,145.6,105.3,145.6z M102.1,63.8C83,65.4,68,81.5,68,100.9
	c0,20.5,16.7,37.3,37.3,37.3c10,0,19.6-4.1,26.5-11.1c-8.5-2-16.3-6.6-22.4-13.1c-7.7-8.3-11.9-19.1-11.9-30.4
	C97.4,76.6,99,69.9,102.1,63.8z"/>
</svg>
