<?xml version="1.0" encoding="utf-8"?>
<!-- Generator: Adobe Illustrator 19.0.0, SVG Export Plug-In . SVG Version: 6.00 Build 0)  -->
<svg version="1.1" id="Calque_1" xmlns="http://www.w3.org/2000/svg" xmlns:xlink="http://www.w3.org/1999/xlink" x="0px" y="0px"
	 viewBox="0 0 200 200" style="enable-background:new 0 0 200 200;" xml:space="preserve">
<style type="text/css">
	.st0{fill:#FFFFFF;}
</style>
<g id="XMLID_105_">
	<path id="XMLID_107_" class="st0" d="M44.8,167.4c-14.3-0.1-26-11.8-26-26.1c0-12.4,8.6-22.8,20.2-25.4c-0.2-1-0.3-2.1-0.3-3.2
		c0-9.8,8-17.7,17.7-17.7c3.2,0,6.4,0.9,9.1,2.5c7.4-9.8,18.9-15.6,31.5-15.6c19.6,0,36.1,14.4,39,33.5c13.6,0.9,24.3,12.2,24.3,26
		c0,14.2-11.6,25.9-25.8,26.1L44.8,167.4z M56.5,102.4c-5.7,0-10.3,4.6-10.3,10.3c0,1.6,0.4,3.2,1.1,4.6c0.6,1.1,0.5,2.5-0.1,3.6
		c-0.6,1.1-1.8,1.8-3.1,1.8c-10,0.4-17.9,8.6-17.9,18.6c0,10.2,8.3,18.6,18.6,18.6h89.7c10.1-0.1,18.4-8.5,18.4-18.6
		c0-10.3-8.4-18.6-18.6-18.6c-0.4,0-0.8,0-1.3,0.1c-1,0.1-2-0.3-2.7-0.9c-0.7-0.7-1.2-1.6-1.3-2.6c-1.1-16.8-15.1-30-32-30
		c-11.3,0-21.6,5.8-27.4,15.5c-0.6,1-1.6,1.6-2.7,1.8c-1.1,0.1-2.3-0.3-3.1-1.1C61.9,103.5,59.3,102.4,56.5,102.4z"/>
	<path id="XMLID_106_" class="st0" d="M156.4,120.9c-1.7,0-3.2-1.2-3.6-2.9c-0.5-2,0.8-4,2.8-4.5c6.8-1.6,13-5.1,17.9-10.1
		c-8.5-2-16.3-6.6-22.4-13.1c-7.8-8.2-12-19-12-30.3c0-7,1.6-13.7,4.6-19.8c-8.6,0.7-16.6,4.3-22.8,10.4c-7,6.8-11,15.9-11.2,25.6
		c-0.1,2.1-1.8,3.7-3.8,3.6c-2.1-0.1-3.7-1.8-3.6-3.8c0.3-11.7,5.1-22.6,13.5-30.8s19.5-12.7,31.2-12.7c1.2,0,2.4,0,3.6,0.1
		c1.3,0.1,2.5,0.9,3.1,2.1c0.6,1.2,0.4,2.6-0.3,3.7c-4.4,6.3-6.8,13.7-6.8,21.4c0,9.4,3.5,18.4,9.9,25.3c6.4,6.9,15,11.1,24.3,11.8
		c1.3,0.1,2.5,0.9,3.1,2.1c0.6,1.2,0.4,2.6-0.3,3.7c-6.3,9-15.7,15.3-26.3,17.8C156.9,120.9,156.6,120.9,156.4,120.9z"/>
</g>
</svg>
