<?xml version="1.0" encoding="utf-8"?>
<!-- Generator: Adobe Illustrator 19.0.0, SVG Export Plug-In . SVG Version: 6.00 Build 0)  -->
<svg version="1.1" id="Calque_1" xmlns="http://www.w3.org/2000/svg" xmlns:xlink="http://www.w3.org/1999/xlink" x="0px" y="0px"
	 viewBox="0 0 200 200" style="enable-background:new 0 0 200 200;" xml:space="preserve">
<style type="text/css">
	.st0{fill:#FFFFFF;}
</style>
<path id="XMLID_69_" class="st0" d="M55.3,143.7c-14.3-0.1-26-11.8-26-26.1c0-12.4,8.6-22.8,20.2-25.4c-0.2-1-0.3-2.1-0.3-3.2
	c0-9.8,8-17.7,17.7-17.7c3.2,0,6.4,0.9,9.1,2.5c7.4-9.8,18.9-15.6,31.5-15.6c19.6,0,36.1,14.4,39,33.5c13.6,0.9,24.3,12.2,24.3,26
	c0,14.2-11.6,25.9-25.8,26.1L55.3,143.7z M67,78.7c-5.7,0-10.3,4.6-10.3,10.3c0,1.6,0.4,3.2,1.1,4.6c0.6,1.1,0.5,2.5-0.1,3.6
	S55.9,99,54.6,99c-10,0.4-17.9,8.6-17.9,18.6c0,10.2,8.3,18.6,18.6,18.6H145c10.1-0.1,18.4-8.5,18.4-18.6c0-10.3-8.4-18.6-18.6-18.6
	c-0.4,0-0.8,0-1.3,0.1c-1,0.1-2-0.3-2.7-0.9c-0.7-0.7-1.2-1.6-1.3-2.6c-1.1-16.8-15.1-30-32-30c-11.3,0-21.6,5.8-27.4,15.5
	c-0.6,1-1.6,1.6-2.7,1.8c-1.1,0.1-2.3-0.3-3.1-1.1C72.4,79.7,69.8,78.7,67,78.7z"/>
</svg>
