<?xml version="1.0" encoding="utf-8"?>
<!-- Generator: Adobe Illustrator 19.0.0, SVG Export Plug-In . SVG Version: 6.00 Build 0)  -->
<svg version="1.1" id="Calque_1" xmlns="http://www.w3.org/2000/svg" xmlns:xlink="http://www.w3.org/1999/xlink" x="0px" y="0px"
	 viewBox="0 0 200 200" style="enable-background:new 0 0 200 200;" xml:space="preserve">
<style type="text/css">
	.st0{fill:#FFFFFF;}
</style>
<g>
	<path id="XMLID_3_" class="st0" d="M67.8,148.5c-14.3-0.1-26-11.8-26-26.1C41.8,110,50.4,99.6,62,97c-0.2-1-0.3-2.1-0.3-3.2
		c0-9.8,8-17.7,17.7-17.7c3.2,0,6.4,0.9,9.1,2.5C95.9,68.8,107.4,63,120,63c19.6,0,36.1,14.4,39,33.5c13.6,0.9,24.3,12.2,24.3,26
		c0,14.2-11.6,25.9-25.8,26.1L67.8,148.5z M79.5,83.5c-5.7,0-10.3,4.6-10.3,10.3c0,1.6,0.4,3.2,1.1,4.6c0.6,1.1,0.5,2.5-0.1,3.6
		s-1.8,1.8-3.1,1.8c-10,0.4-17.9,8.6-17.9,18.6c0,10.2,8.3,18.6,18.6,18.6h89.7c10.1-0.1,18.4-8.5,18.4-18.6
		c0-10.3-8.4-18.6-18.6-18.6c-0.4,0-0.8,0-1.3,0.1c-1,0.1-2-0.3-2.7-0.9c-0.7-0.7-1.2-1.6-1.3-2.6c-1.1-16.8-15.1-30-32-30
		c-11.3,0-21.6,5.8-27.4,15.5c-0.6,1-1.6,1.6-2.7,1.8c-1.1,0.1-2.3-0.3-3.1-1.1C84.9,84.6,82.3,83.5,79.5,83.5z"/>
	<path id="XMLID_2_" class="st0" d="M39.8,123.9c-7.1-2-12.4-8.5-12.4-16.2c0-9,7.1-16.4,16.1-16.8c1.1,0,2.2-0.7,2.8-1.6
		c0.6-1,0.6-2.2,0.1-3.2c-0.7-1.3-1-2.7-1-4.2c0-5.1,4.2-9.3,9.3-9.3c2.5,0,4.8,1,6.6,2.7c0.7,0.7,1.8,1.1,2.8,1
		c1-0.1,1.9-0.7,2.5-1.6c5.3-8.7,14.5-13.9,24.7-13.9c4.9,0,9.5,1.2,13.5,3.4c2.8-1.1,5.7-1.8,8.7-2.3c-6.1-4.9-13.8-7.8-22.2-7.8
		C80,54.1,69.7,59.3,63,68.2c-2.4-1.5-5.2-2.2-8.2-2.2c-8.8,0-16,7.2-16,16c0,1,0.1,1.9,0.3,2.9c-10.5,2.4-18.2,11.7-18.2,22.9
		c0,11.9,9,21.8,20.6,23.3C40.5,128.8,40,126.4,39.8,123.9z"/>
</g>
</svg>
