<?xml version="1.0" encoding="utf-8"?>
<!-- Generator: Adobe Illustrator 19.0.0, SVG Export Plug-In . SVG Version: 6.00 Build 0)  -->
<svg version="1.1" id="Calque_1" xmlns="http://www.w3.org/2000/svg" xmlns:xlink="http://www.w3.org/1999/xlink" x="0px" y="0px"
	 viewBox="0 0 200 200" style="enable-background:new 0 0 200 200;" xml:space="preserve">
<style type="text/css">
	.st0{fill:#FFFFFF;}
</style>
<g id="XMLID_95_">
	<path id="XMLID_102_" class="st0" d="M49.2,147.2c-13.4-0.1-24.2-11-24.2-24.3c0-11.5,7.8-21.1,18.6-23.6c-0.1-0.9-0.2-1.8-0.2-2.7
		C43.4,87.4,50.9,80,60,80c3,0,5.8,0.8,8.3,2.2c6.9-9,17.5-14.3,29-14.3c18.1,0,33.4,13.3,36.2,30.8c12.5,1,22.4,11.5,22.4,24.2
		c0,13.3-10.8,24.2-24.1,24.3H49.2z M60,87.4c-5.1,0-9.2,4.1-9.2,9.2c0,1.4,0.3,2.8,1,4.1c0.6,1.1,0.5,2.5-0.1,3.6s-1.8,1.8-3.1,1.8
		c-9.1,0.4-16.1,7.8-16.1,16.8c0,9.2,7.5,16.8,16.8,16.9h82.6c9.2-0.1,16.7-7.7,16.7-16.9c0-9.3-7.6-16.9-16.9-16.9
		c-0.3,0-0.7,0-1.2,0c-1,0.1-2-0.3-2.7-0.9c-0.7-0.7-1.2-1.6-1.3-2.6c-1-15.3-13.8-27.3-29.1-27.3c-10.3,0-19.6,5.3-25,14.1
		c-0.6,1-1.6,1.6-2.7,1.8c-1.1,0.1-2.3-0.3-3.1-1.1C64.8,88.4,62.4,87.4,60,87.4z"/>
	<path id="XMLID_101_" class="st0" d="M154.4,103.7c-1.6,0-3.1-1-3.6-2.6c-0.6-2,0.5-4.1,2.5-4.7c5.2-1.6,9.9-4.4,13.7-8.2
		c-7.7-1.9-14.8-6.1-20.3-12c-7.1-7.7-11-17.7-11-28.2c0-6.3,1.4-12.3,4.1-17.9c-7.4,0.7-14.3,3.9-19.7,9
		c-6.3,5.9-10.1,13.8-10.7,22.3c-0.2,2.1-1.9,3.6-4,3.4c-2.1-0.2-3.6-1.9-3.4-4c0.8-10.4,5.4-20.1,13.1-27.2
		c7.7-7.2,17.7-11.1,28.3-11.1c1.1,0,2.2,0,3.4,0.1c1.3,0.1,2.5,0.9,3.1,2.1s0.4,2.6-0.3,3.7c-4,5.7-6.2,12.5-6.2,19.5
		c0,8.6,3.2,16.8,9.1,23.1c5.8,6.3,13.7,10.1,22.2,10.8c1.3,0.1,2.5,0.9,3.1,2.1s0.4,2.6-0.3,3.7c-5.3,7.5-12.9,13.1-21.6,15.8
		C155.1,103.7,154.7,103.7,154.4,103.7z"/>
	<path id="XMLID_100_" class="st0" d="M82.8,185.8c-1,0-1.9-0.4-2.6-1.1c-1.5-1.5-1.5-3.8,0-5.3l8.6-8.6c1.5-1.5,3.8-1.5,5.3,0
		s1.5,3.8,0,5.3l-8.6,8.6C84.7,185.4,83.8,185.8,82.8,185.8z"/>
	<path id="XMLID_99_" class="st0" d="M53,166.3c-1,0-1.9-0.4-2.6-1.1c-1.5-1.5-1.5-3.8,0-5.3l5.4-5.4c1.5-1.5,3.8-1.5,5.3,0
		s1.5,3.8,0,5.3l-5.4,5.4C54.9,165.9,53.9,166.3,53,166.3z"/>
	<path id="XMLID_98_" class="st0" d="M100.7,166.3c-1,0-1.9-0.4-2.6-1.1c-1.5-1.5-1.5-3.8,0-5.3l5.4-5.4c1.5-1.5,3.8-1.5,5.3,0
		s1.5,3.8,0,5.3l-5.4,5.4C102.6,165.9,101.6,166.3,100.7,166.3z"/>
	<path id="XMLID_97_" class="st0" d="M116.1,174.9c-1,0-1.9-0.4-2.6-1.1c-1.5-1.5-1.5-3.8,0-5.3l14.1-14c1.5-1.5,3.8-1.5,5.3,0
		s1.5,3.8,0,5.3l-14.1,14C118,174.5,117,174.9,116.1,174.9z"/>
	<path id="XMLID_96_" class="st0" d="M64.3,178.7c-1,0-1.9-0.4-2.6-1.1c-1.5-1.5-1.5-3.8,0-5.3l17.8-17.8c1.5-1.5,3.8-1.5,5.3,0
		s1.5,3.8,0,5.3L67,177.6C66.2,178.3,65.3,178.7,64.3,178.7z"/>
</g>
</svg>
