<?xml version="1.0" encoding="utf-8"?>
<!-- Generator: Adobe Illustrator 19.0.0, SVG Export Plug-In . SVG Version: 6.00 Build 0)  -->
<svg version="1.1" id="Calque_1" xmlns="http://www.w3.org/2000/svg" xmlns:xlink="http://www.w3.org/1999/xlink" x="0px" y="0px"
	 viewBox="0 0 200 200" style="enable-background:new 0 0 200 200;" xml:space="preserve">
<style type="text/css">
	.st0{fill:#FFBC00;}
	.st1{fill:#FFFFFF;}
</style>
<g id="XMLID_136_">
	<path id="XMLID_145_" class="st0" d="M813-89.8c-20.5,0-37.3-16.7-37.3-37.3s16.7-37.3,37.3-37.3c20.5,0,37.3,16.7,37.3,37.3
		S833.5-89.8,813-89.8z M813-156.9c-16.4,0-29.8,13.4-29.8,29.8s13.4,29.9,29.8,29.9s29.8-13.4,29.8-29.8S829.4-156.9,813-156.9z"/>
	<path id="XMLID_144_" class="st0" d="M813-170.3c-2.1,0-4-1.7-4-3.7v-20.2c0-2.1,1.9-3.7,4-3.7s4,1.7,4,3.7v20.1
		C817-172,815.1-170.3,813-170.3z"/>
	<path id="XMLID_143_" class="st0" d="M813-56.3c-2.1,0-4-1.7-4-3.7v-20.1c0-2.1,1.9-3.7,4-3.7s4,1.7,4,3.7V-60
		C817-58,815.1-56.3,813-56.3z"/>
	<path id="XMLID_142_" class="st0" d="M766-123.2h-20.1c-2.1,0-3.7-1.9-3.7-4c0-2.1,1.7-4,3.7-4H766c2.1,0,3.7,1.9,3.7,4
		C769.7-125.1,768.1-123.2,766-123.2z"/>
	<path id="XMLID_141_" class="st0" d="M880-123.2h-20.1c-2.1,0-3.7-1.9-3.7-4c0-2.1,1.7-4,3.7-4H880c2.1,0,3.7,1.9,3.7,4
		C883.7-125.1,882.1-123.2,880-123.2z"/>
	<path id="XMLID_140_" class="st0" d="M846-156.4c-1,0-1.9-0.4-2.6-1.1c-1.5-1.5-1.5-3.8,0-5.3l14.4-14.4c1.5-1.5,3.8-1.5,5.3,0
		s1.5,3.8,0,5.3l-14.4,14.4C847.9-156.7,846.9-156.4,846-156.4z"/>
	<path id="XMLID_139_" class="st0" d="M765.5-75.9c-1,0-1.9-0.4-2.6-1.1c-1.5-1.5-1.5-3.8,0-5.3l14.4-14.4c1.5-1.5,3.8-1.5,5.3,0
		s1.5,3.8,0,5.3L768.2-77C767.4-76.3,766.5-75.9,765.5-75.9z"/>
	<path id="XMLID_138_" class="st0" d="M780-156.4c-1,0-1.9-0.4-2.6-1.1L763-171.9c-1.5-1.5-1.5-3.8,0-5.3s3.8-1.5,5.3,0l14.4,14.4
		c1.5,1.5,1.5,3.8,0,5.3C781.9-156.7,780.9-156.4,780-156.4z"/>
	<path id="XMLID_137_" class="st0" d="M860.4-75.9c-1,0-1.9-0.4-2.6-1.1l-14.4-14.4c-1.5-1.5-1.5-3.8,0-5.3s3.8-1.5,5.3,0l14.4,14.4
		c1.5,1.5,1.5,3.8,0,5.3C862.3-76.3,861.3-75.9,860.4-75.9z"/>
</g>
<g id="XMLID_125_">
	<path id="XMLID_135_" class="st0" d="M615.8-96.9c-1.1,0-2.2-0.5-2.9-1.4c-1.3-1.6-1.1-3.9,0.5-5.2c7-5.7,11-14.1,11-23.2
		c0-16.4-13.4-29.8-29.8-29.8c-15.2,0-27.9,11.4-29.6,26.5c-0.2,2-2.1,3.5-4.1,3.3s-3.5-2.1-3.3-4.1c2.1-18.9,18-33.1,37-33.1
		c20.5,0,37.3,16.7,37.3,37.3c0,11.3-5,21.8-13.8,28.9C617.5-97.1,616.7-96.9,615.8-96.9z"/>
	<path id="XMLID_134_" class="st0" d="M594.2-169.9c-2.1,0-4-1.7-4-3.7v-20.2c0-2.1,1.9-3.7,4-3.7c2.1,0,4,1.7,4,3.7v20.2
		C598.2-171.6,596.3-169.9,594.2-169.9z"/>
	<path id="XMLID_133_" class="st0" d="M547.7-122.6h-20.1c-2.1,0-3.7-1.4-3.7-3.5c0-2.1,1.7-3.5,3.7-3.5h20.1c2.1,0,3.7,1.4,3.7,3.5
		C551.4-124,549.8-122.6,547.7-122.6z"/>
	<path id="XMLID_132_" class="st0" d="M661.8-122.6h-20.1c-2.1,0-3.7-1.4-3.7-3.5c0-2.1,1.7-3.5,3.7-3.5h20.1c2.1,0,3.7,1.4,3.7,3.5
		C665.5-124,663.8-122.6,661.8-122.6z"/>
	<path id="XMLID_131_" class="st0" d="M627.7-155.9c-1,0-1.9-0.4-2.6-1.1c-1.5-1.5-1.5-3.8,0-5.3l14.4-14.4c1.5-1.5,3.8-1.5,5.3,0
		s1.5,3.8,0,5.3L630.4-157C629.6-156.3,628.6-155.9,627.7-155.9z"/>
	<path id="XMLID_130_" class="st0" d="M561.7-155.9c-1,0-1.9-0.4-2.6-1.1l-14.4-14.4c-1.5-1.5-1.5-3.8,0-5.3s3.8-1.5,5.3,0
		l14.4,14.4c1.5,1.5,1.5,3.8,0,5.3C563.6-156.3,562.6-155.9,561.7-155.9z"/>
	<path id="XMLID_129_" class="st0" d="M642.1-75.5c-1,0-1.9-0.4-2.6-1.1L625.1-91c-1.5-1.5-1.5-3.8,0-5.3s3.8-1.5,5.3,0l14.4,14.4
		c1.5,1.5,1.5,3.8,0,5.3C644-75.9,643.1-75.5,642.1-75.5z"/>
	<path id="XMLID_126_" class="st1" d="M520.1-41c-14.3-0.1-26-11.8-26-26.1c0-12.4,8.6-22.8,20.2-25.4c-0.2-1-0.3-2.1-0.3-3.2
		c0-9.8,8-17.7,17.7-17.7c3.2,0,6.4,0.9,9.1,2.5c7.4-9.8,18.9-15.6,31.5-15.6c19.6,0,36.1,14.4,39,33.5c13.6,0.9,24.3,12.2,24.3,26
		c0,14.2-11.6,25.9-25.8,26.1L520.1-41z M531.8-106c-5.7,0-10.3,4.6-10.3,10.3c0,1.6,0.4,3.2,1.1,4.6c0.6,1.1,0.5,2.5-0.1,3.6
		s-1.8,1.8-3.1,1.8c-10,0.4-17.9,8.6-17.9,18.6c0,10.2,8.3,18.6,18.6,18.6h89.7c10.1-0.1,18.4-8.5,18.4-18.6
		c0-10.3-8.4-18.6-18.6-18.6c-0.4,0-0.8,0-1.3,0.1c-1,0.1-2-0.3-2.7-0.9c-0.7-0.7-1.2-1.6-1.3-2.6c-1.1-16.8-15.1-30-32-30
		c-11.3,0-21.6,5.8-27.4,15.5c-0.6,1-1.6,1.6-2.7,1.8c-1.1,0.1-2.3-0.3-3.1-1.1C537.2-104.9,534.6-106,531.8-106z"/>
</g>
<g id="XMLID_110_">
	<path id="XMLID_124_" class="st0" d="M138.7-120.1c-0.9,0-1.9-0.4-2.6-1.1c-1.3-1.4-1.3-3.7,0.1-5c5.4-5.1,8.4-12,8.4-19.5
		c0-14.8-12-26.8-26.8-26.8c-13,0-24.1,9.3-26.4,22c-0.3,1.9-2.2,3.2-4.1,2.9s-3.2-2.2-2.9-4.1c2.9-16.1,17-27.9,33.4-27.9
		c18.7,0,33.9,15.2,33.9,33.9c0,9.4-3.8,18.1-10.6,24.6C140.5-120.4,139.6-120.1,138.7-120.1z"/>
	<path id="XMLID_123_" class="st0" d="M107.3-182.6c-1.6,0-3.1-1.1-3.5-2.8l-3.7-17.1c-0.4-1.9,0.8-3.8,2.7-4.2
		c1.9-0.4,3.8,0.8,4.2,2.7l3.7,17.1c0.4,1.9-0.8,3.8-2.7,4.2C107.8-182.6,107.6-182.6,107.3-182.6z"/>
	<path id="XMLID_122_" class="st0" d="M159.4-149.5c-1.6,0-3.1-1.1-3.5-2.8c-0.4-1.9,0.8-3.8,2.7-4.2l18.2-4
		c1.9-0.4,3.8,0.8,4.2,2.7s-0.8,3.8-2.7,4.2l-18.2,4C159.9-149.5,159.6-149.5,159.4-149.5z"/>
	<path id="XMLID_121_" class="st0" d="M140.3-176.6c-0.7,0-1.3-0.2-1.9-0.6c-1.6-1.1-2.1-3.2-1.1-4.9l10-15.6
		c1.1-1.6,3.2-2.1,4.9-1.1c1.6,1.1,2.1,3.2,1.1,4.9l-10,15.6C142.6-177.2,141.5-176.6,140.3-176.6z"/>
	<path id="XMLID_120_" class="st0" d="M81.9-163.9c-0.7,0-1.3-0.2-1.9-0.6l-15.6-10c-1.6-1.1-2.1-3.2-1.1-4.9
		c1.1-1.6,3.2-2.1,4.9-1.1l15.6,10c1.6,1.1,2.1,3.2,1.1,4.9C84.2-164.4,83.1-163.9,81.9-163.9z"/>
	<path id="XMLID_119_" class="st0" d="M168.2-108.1c-0.7,0-1.3-0.2-1.9-0.6l-15.6-10c-1.6-1.1-2.1-3.2-1.1-4.9
		c1.1-1.6,3.2-2.1,4.9-1.1l15.6,10c1.6,1.1,2.1,3.2,1.1,4.9C170.6-108.7,169.4-108.1,168.2-108.1z"/>
	<path id="XMLID_116_" class="st1" d="M50.2-67.9c-13-0.1-23.7-10.7-23.7-23.8c0-11.3,7.7-20.7,18.3-23.2c-0.2-0.9-0.2-1.8-0.2-2.8
		c0-9,7.3-16.2,16.2-16.2c2.9,0,5.7,0.8,8.2,2.2c6.8-8.9,17.2-14.1,28.6-14.1c17.8,0,32.8,13.1,35.5,30.3
		c12.3,0.9,22.1,11.2,22.1,23.7c0,13-10.6,23.7-23.6,23.8L50.2-67.9z M60.8-126.8c-5,0-9.2,4.1-9.2,9.2c0,1.4,0.3,2.8,1,4.1
		c0.5,1.1,0.5,2.4-0.1,3.4s-1.7,1.7-2.9,1.7c-9,0.4-16,7.7-16,16.7c0,9.2,7.5,16.7,16.6,16.7h81.3c9.1-0.1,16.5-7.6,16.5-16.7
		c0-9.2-7.5-16.7-16.7-16.7c-0.3,0-0.7,0-1.2,0c-0.9,0.1-1.9-0.2-2.6-0.9c-0.7-0.6-1.1-1.5-1.2-2.4c-1-15.1-13.6-27-28.8-27
		c-10.2,0-19.4,5.2-24.7,13.9c-0.6,0.9-1.5,1.6-2.6,1.7s-2.2-0.2-2.9-1C65.6-125.8,63.3-126.8,60.8-126.8z"/>
	<path id="XMLID_115_" class="st1" d="M81.3-30.9c-0.9,0-1.8-0.3-2.5-1c-1.4-1.4-1.4-3.6,0-5l8.5-8.4c1.4-1.4,3.6-1.4,5,0
		s1.4,3.6,0,5l-8.5,8.4C83.1-31.2,82.2-30.9,81.3-30.9z"/>
	<path id="XMLID_114_" class="st1" d="M51.9-50.1c-0.9,0-1.8-0.3-2.5-1c-1.4-1.4-1.4-3.6,0-5l5.3-5.3c1.4-1.4,3.6-1.4,5,0
		s1.4,3.6,0,5l-5.3,5.3C53.7-50.5,52.8-50.1,51.9-50.1z"/>
	<path id="XMLID_113_" class="st1" d="M98.9-50.1c-0.9,0-1.8-0.3-2.5-1c-1.4-1.4-1.4-3.6,0-5l5.3-5.3c1.4-1.4,3.6-1.4,5,0
		s1.4,3.6,0,5l-5.3,5.3C100.7-50.5,99.8-50.1,98.9-50.1z"/>
	<path id="XMLID_112_" class="st1" d="M114.1-41.6c-0.9,0-1.8-0.3-2.5-1c-1.4-1.4-1.4-3.6,0-5l13.8-13.8c1.4-1.4,3.6-1.4,5,0
		s1.4,3.6,0,5l-13.8,13.8C115.9-42,115-41.6,114.1-41.6z"/>
	<path id="XMLID_111_" class="st1" d="M63.1-37.9c-0.9,0-1.8-0.3-2.5-1c-1.4-1.4-1.4-3.6,0-5l17.6-17.5c1.4-1.4,3.6-1.4,5,0
		s1.4,3.6,0,5L65.6-39C64.9-38.3,64-37.9,63.1-37.9z"/>
</g>
<g id="XMLID_105_">
	<path id="XMLID_107_" class="st1" d="M930-51.8c-14.3-0.1-26-11.8-26-26.1c0-12.4,8.6-22.8,20.2-25.4c-0.2-1-0.3-2.1-0.3-3.2
		c0-9.8,8-17.7,17.7-17.7c3.2,0,6.4,0.9,9.1,2.5c7.4-9.8,18.9-15.6,31.5-15.6c19.6,0,36.1,14.4,39,33.5c13.6,0.9,24.3,12.2,24.3,26
		c0,14.2-11.6,25.9-25.8,26.1L930-51.8z M941.7-116.8c-5.7,0-10.3,4.6-10.3,10.3c0,1.6,0.4,3.2,1.1,4.6c0.6,1.1,0.5,2.5-0.1,3.6
		c-0.6,1.1-1.8,1.8-3.1,1.8c-10,0.4-17.9,8.6-17.9,18.6c0,10.2,8.3,18.6,18.6,18.6h89.7c10.1-0.1,18.4-8.5,18.4-18.6
		c0-10.3-8.4-18.6-18.6-18.6c-0.4,0-0.8,0-1.3,0.1c-1,0.1-2-0.3-2.7-0.9c-0.7-0.7-1.2-1.6-1.3-2.6c-1.1-16.8-15.1-30-32-30
		c-11.3,0-21.6,5.8-27.4,15.5c-0.6,1-1.6,1.6-2.7,1.8c-1.1,0.1-2.3-0.3-3.1-1.1C947.1-115.7,944.5-116.8,941.7-116.8z"/>
	<path id="XMLID_106_" class="st1" d="M1041.6-98.3c-1.7,0-3.2-1.2-3.6-2.9c-0.5-2,0.8-4,2.8-4.5c6.8-1.6,13-5.1,17.9-10.1
		c-8.5-2-16.3-6.6-22.4-13.1c-7.8-8.2-12-19-12-30.3c0-7,1.6-13.7,4.6-19.8c-8.6,0.7-16.6,4.3-22.8,10.4c-7,6.8-11,15.9-11.2,25.6
		c-0.1,2.1-1.8,3.7-3.8,3.6c-2.1-0.1-3.7-1.8-3.6-3.8c0.3-11.7,5.1-22.6,13.5-30.8c8.4-8.2,19.5-12.7,31.2-12.7c1.2,0,2.4,0,3.6,0.1
		c1.3,0.1,2.5,0.9,3.1,2.1s0.4,2.6-0.3,3.7c-4.4,6.3-6.8,13.7-6.8,21.4c0,9.4,3.5,18.4,9.9,25.3c6.4,6.9,15,11.1,24.3,11.8
		c1.3,0.1,2.5,0.9,3.1,2.1c0.6,1.2,0.4,2.6-0.3,3.7c-6.3,9-15.7,15.3-26.3,17.8C1042.1-98.3,1041.8-98.3,1041.6-98.3z"/>
</g>
<g id="XMLID_95_">
	<path id="XMLID_102_" class="st1" d="M240.6-47.8c-13.4-0.1-24.2-11-24.2-24.3c0-11.5,7.8-21.1,18.6-23.6c-0.1-0.9-0.2-1.8-0.2-2.7
		c0-9.2,7.5-16.6,16.6-16.6c3,0,5.8,0.8,8.3,2.2c6.9-9,17.5-14.3,29-14.3c18.1,0,33.4,13.3,36.2,30.8c12.5,1,22.4,11.5,22.4,24.2
		c0,13.3-10.8,24.2-24.1,24.3H240.6z M251.4-107.6c-5.1,0-9.2,4.1-9.2,9.2c0,1.4,0.3,2.8,1,4.1c0.6,1.1,0.5,2.5-0.1,3.6
		c-0.6,1.1-1.8,1.8-3.1,1.8c-9.1,0.4-16.1,7.8-16.1,16.8c0,9.2,7.5,16.8,16.8,16.9h82.6c9.2-0.1,16.7-7.7,16.7-16.9
		c0-9.3-7.6-16.9-16.9-16.9c-0.3,0-0.7,0-1.2,0c-1,0.1-2-0.3-2.7-0.9c-0.7-0.7-1.2-1.6-1.3-2.6c-1-15.3-13.8-27.3-29.1-27.3
		c-10.3,0-19.6,5.3-25,14.1c-0.6,1-1.6,1.6-2.7,1.8c-1.1,0.1-2.3-0.3-3.1-1.1C256.2-106.6,253.8-107.6,251.4-107.6z"/>
	<path id="XMLID_101_" class="st1" d="M345.8-91.3c-1.6,0-3.1-1-3.6-2.6c-0.6-2,0.5-4.1,2.5-4.7c5.2-1.6,9.9-4.4,13.7-8.2
		c-7.7-1.9-14.8-6.1-20.3-12c-7.1-7.7-11-17.7-11-28.2c0-6.3,1.4-12.3,4.1-17.9c-7.4,0.7-14.3,3.9-19.7,9
		c-6.3,5.9-10.1,13.8-10.7,22.3c-0.2,2.1-1.9,3.6-4,3.4c-2.1-0.2-3.6-1.9-3.4-4c0.8-10.4,5.4-20.1,13.1-27.2
		c7.7-7.2,17.7-11.1,28.3-11.1c1.1,0,2.2,0,3.4,0.1c1.3,0.1,2.5,0.9,3.1,2.1c0.6,1.2,0.4,2.6-0.3,3.7c-4,5.7-6.2,12.5-6.2,19.5
		c0,8.6,3.2,16.8,9.1,23.1c5.8,6.3,13.7,10.1,22.2,10.8c1.3,0.1,2.5,0.9,3.1,2.1s0.4,2.6-0.3,3.7c-5.3,7.5-12.9,13.1-21.6,15.8
		C346.5-91.3,346.1-91.3,345.8-91.3z"/>
	<path id="XMLID_100_" class="st1" d="M274.2-9.2c-1,0-1.9-0.4-2.6-1.1c-1.5-1.5-1.5-3.8,0-5.3l8.6-8.6c1.5-1.5,3.8-1.5,5.3,0
		s1.5,3.8,0,5.3l-8.6,8.6C276.1-9.6,275.2-9.2,274.2-9.2z"/>
	<path id="XMLID_99_" class="st1" d="M244.4-28.7c-1,0-1.9-0.4-2.6-1.1c-1.5-1.5-1.5-3.8,0-5.3l5.4-5.4c1.5-1.5,3.8-1.5,5.3,0
		s1.5,3.8,0,5.3l-5.4,5.4C246.3-29.1,245.3-28.7,244.4-28.7z"/>
	<path id="XMLID_98_" class="st1" d="M292.1-28.7c-1,0-1.9-0.4-2.6-1.1c-1.5-1.5-1.5-3.8,0-5.3l5.4-5.4c1.5-1.5,3.8-1.5,5.3,0
		s1.5,3.8,0,5.3l-5.4,5.4C294-29.1,293-28.7,292.1-28.7z"/>
	<path id="XMLID_97_" class="st1" d="M307.5-20.1c-1,0-1.9-0.4-2.6-1.1c-1.5-1.5-1.5-3.8,0-5.3l14.1-14c1.5-1.5,3.8-1.5,5.3,0
		s1.5,3.8,0,5.3l-14.1,14C309.4-20.5,308.4-20.1,307.5-20.1z"/>
	<path id="XMLID_96_" class="st1" d="M255.7-16.3c-1,0-1.9-0.4-2.6-1.1c-1.5-1.5-1.5-3.8,0-5.3l17.8-17.8c1.5-1.5,3.8-1.5,5.3,0
		s1.5,3.8,0,5.3l-17.8,17.8C257.6-16.7,256.7-16.3,255.7-16.3z"/>
</g>
<g id="XMLID_91_">
	<path id="XMLID_94_" class="st1" d="M-60.1,339h-94.3c-7.3,0-13.5-6.4-13.5-13.9c0-7.6,6.1-13.8,13.5-13.8s13.5,6.1,13.5,13.7
		c0,2.1-1.7,3.7-3.7,3.7s-3.7-1.7-3.7-3.7c0-3.4-2.8-6.2-6-6.2c-3.3,0-6,2.7-6,6.1s2.8,6.1,6.1,6.1h94.3c2.1,0,3.7,1.9,3.7,4
		S-58.1,339-60.1,339z"/>
	<path id="XMLID_93_" class="st1" d="M-41.1,322h-76.3c-9.4,0-17-7.3-17-16.7s7.6-16.9,16.9-16.9s16.9,7.8,16.9,17.2
		c0,2.1-1.7,3.8-3.7,3.8c-2.1,0-3.7-1.6-3.7-3.7c0-5.3-4.2-9.6-9.4-9.6c-5.2,0-9.5,4.2-9.5,9.5s4.4,9.5,9.5,9.5h76.3
		c2.1,0,3.7,1.4,3.7,3.5S-39,322-41.1,322z"/>
	<path id="XMLID_92_" class="st1" d="M-142.3,380.5c-4.5,0-8.8-1.7-11.9-4.8c-3.2-3.1-5-7.4-5-11.9c0-9.2,7.6-16.8,17-16.8h93
		c2.1,0,3.7,1.4,3.7,3.5s-1.7,3.5-3.7,3.5h-93c-5.3,0-9.5,4.3-9.5,9.5s4.2,9.4,9.5,9.4s9.5-4,9.5-9.3c0-2.1,1.7-3.7,3.7-3.7
		c2.1,0,3.7,1.7,3.7,3.7C-125.4,373-133,380.5-142.3,380.5z"/>
</g>
<g id="XMLID_82_">
	<path id="XMLID_90_" class="st1" d="M-49.4,550h-94.2c-2.1,0-3.7-1.9-3.7-4s1.7-4,3.7-4h94.2c3.3,0,6.1-2.8,6.1-6.2s-2.7-6.2-6-6.2
		s-6,2.8-6,6.1c0,2.1-1.7,3.7-3.7,3.7c-2.1,0-3.7-1.7-3.7-3.7c0-7.5,6-13.6,13.5-13.6c7.4,0,13.5,6.4,13.5,13.9
		C-35.9,543.6-41.9,550-49.4,550z"/>
	<path id="XMLID_89_" class="st1" d="M-86.4,533h-76.2c-2.1,0-3.7-1.4-3.7-3.5s1.7-3.5,3.7-3.5h76.2c5.3,0,9.5-4.3,9.5-9.6
		s-4.2-9.6-9.4-9.6c-5.2,0-9.4,4.3-9.4,9.5c0,2.1-1.7,3.7-3.7,3.7s-3.7-1.7-3.7-3.7c0-9.4,7.6-17,16.8-17c9.3,0,16.9,7.4,16.9,16.8
		C-69.4,525.6-77,533-86.4,533z"/>
	<path id="XMLID_88_" class="st1" d="M-54.8,591.4c-9.3,0-16.9-7.6-16.9-16.9c0-2.1,1.7-3.7,3.7-3.7s3.7,1.7,3.7,3.7
		c0,5.2,4.2,9.4,9.4,9.4s9.5-4.8,9.5-10s-4.3-10-9.5-10h-100.3c-2.1,0-3.7-1.4-3.7-3.5s1.7-3.5,3.7-3.5h100.3c9.4,0,17,7.9,17,17.2
		C-37.9,583.5-45.4,591.4-54.8,591.4z"/>
	<path id="XMLID_87_" class="st1" d="M-116.8,611.3c-1,0-1.9-0.4-2.6-1.1c-1.5-1.5-1.5-3.8,0-5.3l9.3-9.3c1.5-1.5,3.8-1.5,5.3,0
		s1.5,3.8,0,5.3l-9.3,9.3C-114.9,610.9-115.8,611.3-116.8,611.3z"/>
	<path id="XMLID_86_" class="st1" d="M-149.2,590c-1,0-1.9-0.4-2.6-1.1c-1.5-1.5-1.5-3.8,0-5.3l5.9-5.9c1.5-1.5,3.8-1.5,5.3,0
		s1.5,3.8,0,5.3l-5.9,5.9C-147.3,589.7-148.2,590-149.2,590z"/>
	<path id="XMLID_85_" class="st1" d="M-97.4,590c-1,0-1.9-0.4-2.6-1.1c-1.5-1.5-1.5-3.8,0-5.3l5.9-5.9c1.5-1.5,3.8-1.5,5.3,0
		s1.5,3.8,0,5.3l-5.9,5.9C-95.5,589.7-96.4,590-97.4,590z"/>
	<path id="XMLID_84_" class="st1" d="M-81.4,604.2c-1,0-1.9-0.4-2.6-1.1c-1.5-1.5-1.4-3.8,0-5.3l7.1-7.1c1.5-1.5,3.8-1.5,5.3,0
		s1.4,3.8,0,5.3l-7.1,7.1C-79.5,603.9-80.4,604.2-81.4,604.2z"/>
	<path id="XMLID_83_" class="st1" d="M-136.9,603.5c-1,0-1.9-0.4-2.6-1.1c-1.5-1.5-1.5-3.8,0-5.3l19.4-19.4c1.5-1.5,3.8-1.5,5.3,0
		s1.5,3.8,0,5.3l-19.4,19.4C-135,603.1-135.9,603.5-136.9,603.5z"/>
</g>
<g id="XMLID_72_">
	<path id="XMLID_81_" class="st1" d="M172.7,573H54.3c-2.1,0-3.7-1.9-3.7-4s1.7-4,3.7-4h118.4c3.3,0,6.1-2.4,6.1-5.8
		c0-3.4-2.7-6-6-6s-6,2.9-6,6.3c0,2.1-1.7,3.8-3.7,3.8s-3.7-1.6-3.7-3.7c0-7.5,6-13.6,13.4-13.6s13.5,6,13.5,13.5
		S180.2,573,172.7,573z"/>
	<path id="XMLID_80_" class="st1" d="M145.1,615.2c-4.5,0-8.8-1.8-11.9-5c-3.1-3.2-4.9-7.4-4.9-11.9c0-2.1,1.7-3.7,3.7-3.7
		s3.7,1.7,3.7,3.7c0,5.3,4.1,9.4,9.3,9.4c5.3,0,9.4-4.1,9.4-9.4c0-5.2-4.3-9.4-9.6-9.4H45c-2.1,0-3.7-1.4-3.7-3.5s1.7-3.5,3.7-3.5
		h99.9c9.4,0,17,7.3,17,16.6C161.9,607.9,154.4,615.2,145.1,615.2z"/>
	<path id="XMLID_79_" class="st1" d="M104.3,559H64c-2.1,0-3.7-1.9-3.7-4s1.7-4,3.7-4h40.3c5.3,0,9.6-3.7,9.6-9
		c0-5.2-4.2-9.2-9.4-9.2c-5.2,0-9.3,4.3-9.3,9.6c0,2.1-1.7,3.8-3.7,3.8c-2.1,0-3.7-1.6-3.7-3.7c0-9.3,7.5-16.9,16.8-16.9
		s16.9,7.4,16.9,16.7C121.3,551.6,113.7,559,104.3,559z"/>
	<path id="XMLID_78_" class="st1" d="M83,635.1c-1,0-1.9-0.4-2.6-1.1c-1.5-1.5-1.5-3.8,0-5.3l9.3-9.3c1.5-1.5,3.8-1.5,5.3,0
		s1.5,3.8,0,5.3l-9.3,9.3C84.9,634.8,83.9,635.1,83,635.1z"/>
	<path id="XMLID_77_" class="st1" d="M50.6,613.9c-1,0-1.9-0.4-2.6-1.1c-1.5-1.5-1.5-3.8,0-5.3l5.9-5.9c1.5-1.5,3.8-1.5,5.3,0
		s1.5,3.8,0,5.3l-5.9,5.9C52.5,613.5,51.5,613.9,50.6,613.9z"/>
	<path id="XMLID_76_" class="st1" d="M102.4,613.9c-1,0-1.9-0.4-2.6-1.1c-1.5-1.5-1.5-3.8,0-5.3l5.9-5.9c1.5-1.5,3.8-1.5,5.3,0
		s1.5,3.8,0,5.3l-5.9,5.9C104.3,613.5,103.3,613.9,102.4,613.9z"/>
	<path id="XMLID_75_" class="st1" d="M118.4,628.1c-1,0-1.9-0.4-2.6-1.1c-1.5-1.5-1.4-3.8,0-5.3l7.1-7.1c1.5-1.5,3.8-1.5,5.3,0
		c1.5,1.5,1.4,3.8,0,5.3L121,627C120.3,627.7,119.3,628.1,118.4,628.1z"/>
	<path id="XMLID_74_" class="st1" d="M62.9,627.4c-1,0-1.9-0.4-2.6-1.1c-1.5-1.5-1.5-3.8,0-5.3l19.4-19.4c1.5-1.5,3.8-1.5,5.3,0
		s1.5,3.8,0,5.3l-19.4,19.4C64.8,627,63.8,627.4,62.9,627.4z"/>
	<path id="XMLID_73_" class="st1" d="M130.6,559.9H127c-2.1,0-3.7-1.7-3.7-3.7c0-2.1,1.7-3.7,3.7-3.7h3.6
		c9.4-0.3,16.7-7.8,16.7-16.9c0-9.3-7.6-16.9-16.9-16.9c-0.5,0-0.9,0-1.2,0c-1,0.1-2-0.3-2.7-0.9c-0.7-0.7-1.2-1.6-1.3-2.6
		c-1-15.3-13.8-27.3-29.1-27.3c-10.3,0-19.6,5.3-25,14.1c-0.6,1-1.6,1.6-2.7,1.8c-1.1,0.1-2.3-0.3-3.1-1.1c-1.7-1.7-4-2.7-6.5-2.7
		c-5.1,0-9.2,4.1-9.2,9.2c0,1.4,0.3,2.8,1,4.1c0.6,1.1,0.5,2.5-0.1,3.6s-1.8,1.8-3.1,1.8c-9.1,0.4-16.1,7.8-16.1,16.8
		c0,9.3,7.5,16.8,16.8,16.9h3.2c2.1,0,3.7,1.7,3.7,3.7c0,2.1-1.7,3.7-3.7,3.7l0,0h-3.2c-13.4-0.1-24.2-11-24.2-24.4
		c0-11.5,7.8-21.1,18.6-23.6c-0.1-0.9-0.2-1.8-0.2-2.7c0-9.2,7.5-16.6,16.6-16.6c3,0,5.8,0.8,8.3,2.2c6.9-9,17.5-14.3,29-14.3
		c18.1,0,33.4,13.3,36.2,30.8c12.5,1,22.4,11.5,22.4,24.3c0,13.2-10.5,23.9-24,24.4C130.7,559.9,130.7,559.9,130.6,559.9z"/>
</g>
<path id="XMLID_69_" class="st1" d="M73.7-248.5c-14.3-0.1-26-11.8-26-26.1c0-12.4,8.6-22.8,20.2-25.4c-0.2-1-0.3-2.1-0.3-3.2
	c0-9.8,8-17.7,17.7-17.7c3.2,0,6.4,0.9,9.1,2.5c7.4-9.8,18.9-15.6,31.5-15.6c19.6,0,36.1,14.4,39,33.5c13.6,0.9,24.3,12.2,24.3,26
	c0,14.2-11.6,25.9-25.8,26.1L73.7-248.5z M85.4-313.5c-5.7,0-10.3,4.6-10.3,10.3c0,1.6,0.4,3.2,1.1,4.6c0.6,1.1,0.5,2.5-0.1,3.6
	c-0.6,1.1-1.8,1.8-3.1,1.8c-10,0.4-17.9,8.6-17.9,18.6c0,10.2,8.3,18.6,18.6,18.6h89.7c10.1-0.1,18.4-8.5,18.4-18.6
	c0-10.3-8.4-18.6-18.6-18.6c-0.4,0-0.8,0-1.3,0.1c-1,0.1-2-0.3-2.7-0.9c-0.7-0.7-1.2-1.6-1.3-2.6c-1.1-16.8-15.1-30-32-30
	c-11.3,0-21.6,5.8-27.4,15.5c-0.6,1-1.6,1.6-2.7,1.8c-1.1,0.1-2.3-0.3-3.1-1.1C90.8-312.5,88.2-313.5,85.4-313.5z"/>
<g id="XMLID_62_">
	<path id="XMLID_68_" class="st1" d="M-663.6,358.3h-3.9c-2.1,0-3.7-1.7-3.7-3.7c0-2.1,1.7-3.7,3.7-3.7l0,0h3.9
		c10.2-0.1,18.4-8.5,18.4-18.6c0-10.3-8.4-18.6-18.6-18.6c-0.4,0-0.9,0-1.3,0.1c-1,0.1-2-0.3-2.7-0.9c-0.7-0.7-1.2-1.6-1.3-2.6
		c-1.1-16.8-15.1-30-32-30c-11.3,0-21.6,5.8-27.4,15.5c-0.6,1-1.6,1.6-2.7,1.8c-1.1,0.1-2.3-0.3-3.1-1.1c-1.9-2-4.5-3-7.3-3
		c-5.7,0-10.3,4.6-10.3,10.3c0,1.6,0.4,3.2,1.1,4.6c0.6,1.1,0.5,2.5-0.1,3.6s-1.8,1.8-3.1,1.8c-10,0.4-17.9,8.6-17.9,18.6
		c0,10.3,8.3,18.6,18.5,18.6h3.8c2.1,0,3.7,1.7,3.7,3.7c0,2.1-1.7,3.7-3.7,3.7h-3.8c-14.3,0-26-11.7-26-26.1
		c0-12.4,8.6-22.8,20.2-25.4c-0.2-1-0.3-2.1-0.3-3.2c0-9.8,8-17.7,17.7-17.7c3.3,0,6.4,0.9,9.1,2.5c7.4-9.8,18.9-15.6,31.5-15.6
		c19.6,0,36.1,14.4,39,33.5c13.6,0.9,24.3,12.2,24.3,26C-637.7,346.4-649.3,358.1-663.6,358.3L-663.6,358.3z"/>
	<path id="XMLID_67_" class="st1" d="M-743.6,393.3c-1,0-1.9-0.4-2.6-1.1c-1.5-1.5-1.5-3.8,0-5.2l16-16h-9.6c-1.5,0-2.9-1-3.5-2.4
		s-0.2-3.1,0.9-4.1l23.5-22.3c1.5-1.4,3.9-1.4,5.3,0.1c1.4,1.5,1.4,3.6-0.1,5l-16.7,15.6h9.3c1.5,0,2.9,1.1,3.4,2.5
		c0.6,1.4,0.3,3.1-0.8,4.2l-22.4,22.4C-741.7,392.9-742.6,393.3-743.6,393.3z"/>
	<path id="XMLID_66_" class="st1" d="M-705.6,380.2c-1,0-1.9-0.4-2.6-1.1c-1.5-1.5-1.5-3.8,0-5.2l16-15.9h-9.6c-1.5,0-2.9-1-3.5-2.4
		s-0.2-3.1,0.9-4.1l23.5-22.4c1.5-1.4,3.8-1.4,5.3,0.1c1.4,1.5,1.4,3.6-0.1,5.1l-16.7,15.8h9.3c1.5,0,2.9,1.1,3.4,2.5
		c0.6,1.4,0.3,3.1-0.8,4.2l-22.4,22.4C-703.7,379.8-704.6,380.2-705.6,380.2z"/>
	<path id="XMLID_65_" class="st1" d="M-724.6,398.1c-1,0-1.9-0.4-2.6-1.1c-1.5-1.5-1.5-3.8,0-5.3l9.3-9.3c1.5-1.5,3.8-1.5,5.3,0
		s1.5,3.8,0,5.3l-9.3,9.3C-722.7,397.7-723.6,398.1-724.6,398.1z"/>
	<path id="XMLID_64_" class="st1" d="M-758.5,385.8c-1,0-1.9-0.4-2.6-1.1c-1.5-1.5-1.5-3.8,0-5.3l5.9-5.9c1.5-1.5,3.8-1.5,5.3,0
		s1.5,3.8,0,5.3l-5.9,5.9C-756.6,385.4-757.6,385.8-758.5,385.8z"/>
	<path id="XMLID_63_" class="st1" d="M-691.8,391c-1,0-1.9-0.4-2.6-1.1c-1.5-1.5-1.5-3.8,0-5.3l19.4-19.4c1.5-1.5,3.8-1.5,5.3,0
		s1.5,3.8,0,5.3l-19.4,19.4C-689.9,390.7-690.8,391-691.8,391z"/>
</g>
<g id="XMLID_54_">
	<path id="XMLID_59_" class="st1" d="M-466.1,578.2h-3.9l0,0h-85.8c-14.3,0-26-11.7-26-26.1c0-12.4,8.6-22.8,20.2-25.4
		c-0.2-1-0.3-2.1-0.3-3.2c0-9.8,8-17.7,17.7-17.7c3.2,0,6.4,0.9,9.1,2.5c7.4-9.8,18.9-15.6,31.5-15.6c19.6,0,36.1,14.4,39,33.5
		c13.6,0.9,24.3,12.2,24.3,26C-440.2,566.3-451.8,578-466.1,578.2L-466.1,578.2z M-470,570.7h3.9c10.2-0.1,18.4-8.5,18.4-18.6
		c0-10.3-8.4-18.6-18.6-18.6c-0.4,0-0.9,0-1.3,0.1c-1,0.1-2-0.3-2.7-0.9c-0.7-0.7-1.2-1.6-1.3-2.6c-1.1-16.8-15.1-30-32-30
		c-11.3,0-21.6,5.8-27.4,15.5c-0.6,1-1.6,1.6-2.7,1.8c-1.1,0.1-2.3-0.3-3.1-1.1c-1.9-2-4.5-3-7.3-3c-5.7,0-10.3,4.6-10.3,10.3
		c0,1.6,0.4,3.2,1.1,4.6c0.6,1.1,0.5,2.5-0.1,3.6s-1.8,1.8-3.1,1.8c-10,0.4-17.9,8.6-17.9,18.6c0,10.3,8.3,18.6,18.5,18.6h3.8
		L-470,570.7z"/>
	<path id="XMLID_58_" class="st1" d="M-474.7,610L-474.7,610l-21-0.1c-2.1,0-3.7-1.9-3.7-3.9c0-2.1,1.7-3.9,3.7-3.9l0,0l21,0.2
		c2.1,0,3.7,1.9,3.7,3.9C-470.9,608.2-472.6,610-474.7,610z"/>
	<path id="XMLID_57_" class="st1" d="M-510.2,610L-510.2,610l-37.1-0.1c-2.1,0-3.7-1.9-3.7-3.9c0-2.1,1.7-3.9,3.7-3.9l0,0l37,0.2
		c2.1,0,3.7,1.9,3.7,3.9C-506.5,608.2-508.1,610-510.2,610z"/>
	<path id="XMLID_56_" class="st1" d="M-466,594L-466,594l-48.3,0.1c-2.1,0-3.7-1.5-3.7-3.5c0-2.1,1.7-3.5,3.7-3.5l0,0l48.3-0.1
		c2.1,0,3.7,1.5,3.7,3.6C-462.3,592.5-463.9,594-466,594z"/>
	<path id="XMLID_55_" class="st1" d="M-528.2,594L-528.2,594l-26.7,0.1c-2.1,0-3.7-1.5-3.7-3.5c0-2.1,1.7-3.5,3.7-3.5l0,0l26.7-0.1
		c2.1,0,3.7,1.5,3.7,3.6C-524.5,592.5-526.2,594-528.2,594z"/>
</g>
<g>
	<path id="XMLID_60_" class="st1" d="M141.2,121.3L141.2,121.3l-48.3,0.1c-2.1,0-3.7-1.5-3.7-3.5c0-2.1,1.7-3.5,3.7-3.5l0,0
		l48.3-0.1c2.1,0,3.7,1.5,3.7,3.6C144.9,119.8,143.3,121.3,141.2,121.3z"/>
	<path id="XMLID_50_" class="st1" d="M79,121.3L79,121.3l-26.7,0.1c-2.1,0-3.7-1.5-3.7-3.5c0-2.1,1.7-3.5,3.7-3.5l0,0l26.7-0.1
		c2.1,0,3.7,1.5,3.7,3.6C82.7,119.8,81,121.3,79,121.3z"/>
	<path id="XMLID_150_" class="st1" d="M157,96.9L157,96.9L92.9,97c-2.1,0-3.7-1.5-3.7-3.5c0-2.1,1.7-3.5,3.7-3.5l0,0l64.1-0.1
		c2.1,0,3.7,1.5,3.7,3.6C160.7,95.4,159.1,96.9,157,96.9z"/>
	<path id="XMLID_149_" class="st1" d="M79,96.9L79,96.9L52.3,97c-2.1,0-3.7-1.5-3.7-3.5c0-2.1,1.7-3.5,3.7-3.5l0,0L79,89.9
		c2.1,0,3.7,1.5,3.7,3.6C82.7,95.4,81,96.9,79,96.9z"/>
	<path id="XMLID_103_" class="st1" d="M124.7,146.1L124.7,146.1L98,146.2c-2.1,0-3.7-1.5-3.7-3.5c0-2.1,1.7-3.5,3.7-3.5l0,0
		l26.7-0.1c2.1,0,3.7,1.5,3.7,3.6C128.4,144.6,126.7,146.1,124.7,146.1z"/>
	<path id="XMLID_147_" class="st1" d="M141.2,73.2L141.2,73.2l-48.3,0.1c-2.1,0-3.7-1.5-3.7-3.5c0-2.1,1.7-3.5,3.7-3.5l0,0l48.3-0.1
		c2.1,0,3.7,1.5,3.7,3.6C144.9,71.7,143.3,73.2,141.2,73.2z"/>
	<path id="XMLID_1_" class="st1" d="M111.4,134L111.4,134l-48.3,0.1c-2.1,0-3.7-1.5-3.7-3.5c0-2.1,1.7-3.5,3.7-3.5l0,0l48.3-0.1
		c2.1,0,3.7,1.5,3.7,3.6C115.1,132.5,113.5,134,111.4,134z"/>
	<path id="XMLID_71_" class="st1" d="M149,85.2L149,85.2l-38.7,0.1c-2.1,0-3.7-1.5-3.7-3.5c0-2.1,1.7-3.5,3.7-3.5l0,0l38.7-0.1
		c2.1,0,3.7,1.5,3.7,3.6C152.7,83.7,151.1,85.2,149,85.2z"/>
	<path id="XMLID_61_" class="st1" d="M119.5,61.2L119.5,61.2l-38.7,0.1c-2.1,0-3.7-1.5-3.7-3.5c0-2.1,1.7-3.5,3.7-3.5l0,0l38.7-0.1
		c2.1,0,3.7,1.5,3.7,3.6C123.2,59.7,121.6,61.2,119.5,61.2z"/>
	<path id="XMLID_70_" class="st1" d="M96.4,85.2L96.4,85.2l-36.3,0.1c-2.1,0-3.7-1.5-3.7-3.5c0-2.1,1.7-3.5,3.7-3.5l0,0l36.3-0.1
		c2.1,0,3.7,1.5,3.7,3.6C100.1,83.7,98.4,85.2,96.4,85.2z"/>
	<path id="XMLID_148_" class="st1" d="M149,108.7L149,108.7l-38.7,0.1c-2.1,0-3.7-1.5-3.7-3.5c0-2.1,1.7-3.5,3.7-3.5l0,0l38.7-0.1
		c2.1,0,3.7,1.5,3.7,3.6C152.7,107.2,151.1,108.7,149,108.7z"/>
	<path id="XMLID_146_" class="st1" d="M96.4,108.7L96.4,108.7l-53.1,0.1c-2.1,0-3.7-1.5-3.7-3.5c0-2.1,1.7-3.5,3.7-3.5l0,0l53.1-0.1
		c2.1,0,3.7,1.5,3.7,3.6C100.1,107.2,98.4,108.7,96.4,108.7z"/>
</g>
<path id="XMLID_51_" class="st1" d="M1156-88.6c-24.7,0-44.7-20.1-44.7-44.7s20.1-44.7,44.7-44.7c1.2,0,2.4,0,3.6,0.1
	c1.3,0.1,2.5,0.9,3.1,2.1s0.4,2.6-0.3,3.7c-4.4,6.3-6.8,13.7-6.8,21.4c0,9.4,3.5,18.4,9.9,25.3c6.4,6.9,15,11.1,24.3,11.8
	c1.3,0.1,2.5,0.9,3.1,2.1c0.6,1.2,0.4,2.6-0.3,3.7C1184.2-95.7,1170.5-88.6,1156-88.6z M1152.8-170.4c-19.1,1.6-34.1,17.7-34.1,37.1
	c0,20.5,16.7,37.3,37.3,37.3c10,0,19.6-4.1,26.5-11.1c-8.5-2-16.3-6.6-22.4-13.1c-7.7-8.3-11.9-19.1-11.9-30.4
	C1148.1-157.6,1149.7-164.3,1152.8-170.4z"/>
<g id="XMLID_42_">
	<path id="XMLID_48_" class="st1" d="M-466.1,358.3h-3.9l0,0h-85.8c-14.3,0-26-11.7-26-26.1c0-12.4,8.6-22.8,20.2-25.4
		c-0.2-1-0.3-2.1-0.3-3.2c0-9.8,8-17.7,17.7-17.7c3.2,0,6.4,0.9,9.1,2.5c7.4-9.8,18.9-15.6,31.5-15.6c19.6,0,36.1,14.4,39,33.5
		c13.6,0.9,24.3,12.2,24.3,26C-440.2,346.4-451.8,358.1-466.1,358.3L-466.1,358.3z M-470,350.8h3.9c10.2-0.1,18.4-8.5,18.4-18.6
		c0-10.3-8.4-18.6-18.6-18.6c-0.4,0-0.9,0-1.3,0.1c-1,0.1-2-0.3-2.7-0.9c-0.7-0.7-1.2-1.6-1.3-2.6c-1.1-16.8-15.1-30-32-30
		c-11.3,0-21.6,5.8-27.4,15.5c-0.6,1-1.6,1.6-2.7,1.8c-1.1,0.1-2.3-0.3-3.1-1.1c-1.9-2-4.5-3-7.3-3c-5.7,0-10.3,4.6-10.3,10.3
		c0,1.6,0.4,3.2,1.1,4.6c0.6,1.1,0.5,2.5-0.1,3.6s-1.8,1.8-3.1,1.8c-10,0.4-17.9,8.6-17.9,18.6c0,10.3,8.3,18.6,18.5,18.6h3.8
		L-470,350.8z"/>
	<path id="XMLID_47_" class="st1" d="M-524.1,398.1c-1,0-1.9-0.4-2.6-1.1c-1.5-1.5-1.5-3.8,0-5.3l9.3-9.3c1.5-1.5,3.8-1.5,5.3,0
		s1.5,3.8,0,5.3l-9.3,9.3C-522.2,397.7-523.1,398.1-524.1,398.1z"/>
	<path id="XMLID_46_" class="st1" d="M-556.5,376.9c-1,0-1.9-0.4-2.6-1.1c-1.5-1.5-1.5-3.8,0-5.3l5.9-5.9c1.5-1.5,3.8-1.5,5.3,0
		s1.5,3.8,0,5.3l-5.9,5.9C-554.6,376.5-555.6,376.9-556.5,376.9z"/>
	<path id="XMLID_45_" class="st1" d="M-504.7,376.9c-1,0-1.9-0.4-2.6-1.1c-1.5-1.5-1.5-3.8,0-5.3l5.9-5.9c1.5-1.5,3.8-1.5,5.3,0
		s1.5,3.8,0,5.3l-5.9,5.9C-502.8,376.5-503.8,376.9-504.7,376.9z"/>
	<path id="XMLID_44_" class="st1" d="M-488,386.2c-1,0-1.9-0.4-2.6-1.1c-1.5-1.5-1.5-3.8,0-5.3l15.3-15.3c1.5-1.5,3.8-1.5,5.3,0
		s1.5,3.8,0,5.3l-15.3,15.3C-486,385.9-487,386.2-488,386.2z"/>
	<path id="XMLID_43_" class="st1" d="M-544.2,390.3c-1,0-1.9-0.4-2.6-1.1c-1.5-1.5-1.5-3.8,0-5.3l19.4-19.4c1.5-1.5,3.8-1.5,5.3,0
		s1.5,3.8,0,5.3l-19.4,19.4C-542.3,390-543.3,390.3-544.2,390.3z"/>
</g>
<g id="XMLID_31_">
	<path id="XMLID_39_" class="st1" d="M-264.9,350.1h-3.9l0,0h-85.8c-14.3,0-26-11.7-26-26.1c0-12.4,8.6-22.8,20.2-25.4
		c-0.2-1-0.3-2.1-0.3-3.2c0-9.8,8-17.7,17.7-17.7c3.2,0,6.4,0.9,9.1,2.5c7.4-9.8,18.9-15.6,31.5-15.6c19.6,0,36.1,14.4,39,33.5
		c13.6,0.9,24.3,12.2,24.3,26C-239,338.2-250.6,349.9-264.9,350.1C-264.8,350.1-264.8,350.1-264.9,350.1z M-268.8,342.6h3.9
		c10.2-0.1,18.4-8.5,18.4-18.6c0-10.3-8.4-18.6-18.6-18.6c-0.4,0-0.9,0-1.3,0.1c-1,0.1-2-0.3-2.7-0.9c-0.7-0.7-1.2-1.6-1.3-2.6
		c-1.1-16.8-15.1-30-32-30c-11.3,0-21.6,5.8-27.4,15.5c-0.6,1-1.6,1.6-2.7,1.8c-1.1,0.1-2.3-0.3-3.1-1.1c-1.9-2-4.5-3-7.3-3
		c-5.7,0-10.3,4.6-10.3,10.3c0,1.6,0.4,3.2,1.1,4.6c0.6,1.1,0.5,2.5-0.1,3.6s-1.8,1.8-3.1,1.8c-10,0.4-17.9,8.6-17.9,18.6
		c0,10.3,8.3,18.6,18.5,18.6h3.8L-268.8,342.6z"/>
	<path id="XMLID_38_" class="st1" d="M-345.6,400.4c-1,0-1.9-0.4-2.6-1.1c-1.5-1.5-1.5-3.8,0-5.3l23.1-23c1.5-1.5,3.8-1.5,5.3,0
		s1.5,3.8,0,5.3l-23.1,23C-343.7,400-344.6,400.4-345.6,400.4z"/>
	<path id="XMLID_37_" class="st1" d="M-322.5,400.4c-1,0-1.9-0.4-2.6-1.1l-23-23.1c-1.5-1.5-1.5-3.8,0-5.3s3.8-1.5,5.3,0l23,23.1
		c1.5,1.5,1.5,3.8,0,5.3C-320.6,400-321.6,400.4-322.5,400.4z"/>
	<path id="XMLID_36_" class="st1" d="M-315.4,389L-315.4,389l-37.3-0.1c-2.1,0-3.7-1.9-3.7-4s1.7-4,3.7-4l0,0l37.3,0.2
		c2.1,0,3.7,1.8,3.7,3.9C-311.7,387.2-313.3,389-315.4,389z"/>
	<path id="XMLID_35_" class="st1" d="M-334,408L-334,408c-2.1,0-3.7-1.9-3.7-4v-37.3c0-2.1,1.7-3.7,3.7-3.7l0,0
		c2.1,0,3.7,1.6,3.7,3.6v37.5C-330.3,406.1-332,408-334,408z"/>
	<path id="XMLID_34_" class="st1" d="M-293.9,383.9c-1.3,0-2.5-0.7-3.2-1.9c-1-1.8-0.4-4.1,1.3-5.1l22.5-13.1c1.8-1,4.1-0.4,5.1,1.3
		c1,1.8,0.4,4.1-1.3,5.1l-22.5,13.1C-292.6,383.7-293.2,383.9-293.9,383.9z"/>
	<path id="XMLID_33_" class="st1" d="M-271.2,383.5c-0.6,0-1.2-0.1-1.8-0.5l-22.9-12.4c-1.8-1-2.5-3.2-1.5-5.1
		c1-1.8,3.2-2.5,5.1-1.5l22.9,12.4c1.8,1,2.5,3.2,1.5,5.1C-268.5,382.8-269.8,383.5-271.2,383.5z"/>
	<path id="XMLID_32_" class="st1" d="M-282.6,390L-282.6,390c-2.1,0-3.7-1.6-3.7-3.7v-25.6c0-2.1,1.7-3.7,3.7-3.7l0,0
		c2.1,0,3.7,1.7,3.7,3.7v25.6C-278.9,388.4-280.6,390-282.6,390z"/>
</g>
<g>
	<g id="XMLID_26_">
		<path id="XMLID_30_" class="st1" d="M1241.8-54.1c-1,0-1.9-0.4-2.6-1.1c-1.5-1.5-1.5-3.8,0-5.3l23.1-23c1.5-1.5,3.8-1.5,5.3,0
			s1.5,3.8,0,5.3l-23.1,23C1243.7-54.5,1242.8-54.1,1241.8-54.1z"/>
		<path id="XMLID_29_" class="st1" d="M1264.9-54.1c-1,0-1.9-0.4-2.6-1.1l-23-23.1c-1.5-1.5-1.5-3.8,0-5.3s3.8-1.5,5.3,0l23,23.1
			c1.5,1.5,1.5,3.8,0,5.3C1266.8-54.5,1265.8-54.1,1264.9-54.1z"/>
		<path id="XMLID_28_" class="st1" d="M1272-66.4L1272-66.4h-37.3c-2.1,0-3.7-1.4-3.7-3.5s1.7-3.5,3.7-3.5l0,0l37.3,0.2
			c2.1,0,3.7,1.4,3.7,3.4S1274.1-66.4,1272-66.4z"/>
		<path id="XMLID_27_" class="st1" d="M1253.4-46.4L1253.4-46.4c-2.1,0-3.7-2-3.7-4v-37.8c0-2.1,1.7-4.2,3.7-4.2l0,0
			c2.1,0,3.7,2,3.7,4.1v37.7C1257.1-48.5,1255.4-46.4,1253.4-46.4z"/>
	</g>
	<g id="XMLID_21_">
		<path id="XMLID_25_" class="st1" d="M1255.8-109.8c-1.4,0-2.8-0.5-3.8-1.6c-2.1-2.1-2.1-5.5,0-7.6l33.3-33.3
			c2.1-2.1,5.5-2.1,7.6,0c2.1,2.1,2.1,5.5,0,7.6l-33.3,33.3C1258.6-110.3,1257.2-109.8,1255.8-109.8z"/>
		<path id="XMLID_24_" class="st1" d="M1289.1-109.8c-1.4,0-2.8-0.5-3.8-1.6l-33.3-33.3c-2.1-2.1-2.1-5.5,0-7.6
			c2.1-2.1,5.5-2.1,7.6,0l33.3,33.3c2.1,2.1,2.1,5.5,0,7.6C1291.9-110.3,1290.5-109.8,1289.1-109.8z"/>
		<path id="XMLID_23_" class="st1" d="M1299.4-126.4L1299.4-126.4h-53.8c-3,0-5.4-2.5-5.4-5.5s2.4-5.5,5.4-5.5l0,0l53.8,0.1
			c3,0,5.4,2.5,5.4,5.4C1304.8-128.9,1302.4-126.4,1299.4-126.4z"/>
		<path id="XMLID_22_" class="st1" d="M1272.5-99.4L1272.5-99.4c-3,0-5.4-2.5-5.4-5.5v-54c0-3,2.4-5.5,5.4-5.5l0,0
			c3,0,5.4,2.5,5.4,5.5v54C1277.9-101.9,1275.4-99.4,1272.5-99.4z"/>
	</g>
	<path id="XMLID_20_" class="st1" d="M1293.5-70.6c-1.3,0-2.5-0.7-3.2-1.9c-1-1.8-0.4-4.1,1.3-5.1l22.5-13.1c1.8-1,4.1-0.4,5.1,1.3
		c1,1.8,0.4,4.1-1.3,5.1l-22.5,13.1C1294.8-70.8,1294.2-70.6,1293.5-70.6z"/>
	<path id="XMLID_19_" class="st1" d="M1316.2-71c-0.6,0-1.2-0.1-1.8-0.5l-22.9-12.4c-1.8-1-2.5-3.2-1.5-5.1c1-1.8,3.2-2.5,5.1-1.5
		l22.9,12.4c1.8,1,2.5,3.2,1.5,5.1C1318.9-71.7,1317.6-71,1316.2-71z"/>
	<path id="XMLID_18_" class="st1" d="M1304.8-64.4L1304.8-64.4c-2.1,0-3.7-1.7-3.7-3.7v-25.6c0-2.1,1.7-3.7,3.7-3.7l0,0
		c2.1,0,3.7,1.6,3.7,3.7v25.6C1308.5-66,1306.8-64.4,1304.8-64.4z"/>
</g>
<g id="XMLID_6_">
	<path id="XMLID_17_" class="st1" d="M-736.6,591.4c-1.3,0-2.5-0.7-3.2-1.9c-1-1.8-0.4-4.1,1.3-5.1l22.5-13.1c1.8-1,4.1-0.4,5.1,1.3
		c1,1.8,0.4,4.1-1.3,5.1l-22.5,13.1C-735.3,591.3-736,591.4-736.6,591.4z"/>
	<path id="XMLID_16_" class="st1" d="M-713.9,591.1c-0.6,0-1.2-0.1-1.8-0.5l-22.9-12.4c-1.8-1-2.5-3.2-1.5-5.1
		c1-1.8,3.2-2.5,5.1-1.5l22.9,12.4c1.8,1,2.5,3.2,1.5,5.1C-711.3,590.4-712.6,591.1-713.9,591.1z"/>
	<path id="XMLID_15_" class="st1" d="M-725.3,598C-725.4,598-725.4,598-725.3,598c-2.1,0-3.7-1.8-3.7-3.9v-26c0-2.1,1.7-4.1,3.7-4.1
		l0,0c2.1,0,3.7,2,3.7,4v25.9C-721.6,596-723.3,598-725.3,598z"/>
	<path id="XMLID_14_" class="st1" d="M-701.2,578.8c-1.3,0-2.5-0.7-3.2-1.9c-1-1.8-0.4-4.1,1.3-5.1l22.5-13.1c1.8-1,4.1-0.4,5.1,1.3
		c1,1.8,0.4,4.1-1.3,5.1l-22.5,13.1C-699.9,578.6-700.6,578.8-701.2,578.8z"/>
	<path id="XMLID_13_" class="st1" d="M-678.5,578.4c-0.6,0-1.2-0.1-1.8-0.5l-22.9-12.4c-1.8-1-2.5-3.2-1.5-5.1
		c1-1.8,3.2-2.5,5.1-1.5l22.9,12.4c1.8,1,2.5,3.2,1.5,5.1C-675.9,577.7-677.2,578.4-678.5,578.4z"/>
	<path id="XMLID_12_" class="st1" d="M-689.9,585L-689.9,585c-2.1,0-3.7-1.7-3.7-3.7v-26.1c0-2.1,1.7-4.2,3.7-4.2l0,0
		c2.1,0,3.7,2.1,3.7,4.2v25.9C-686.2,583.1-687.9,585-689.9,585z"/>
	<path id="XMLID_11_" class="st1" d="M-731.7,622.1c-1,0-1.9-0.4-2.6-1.1c-1.5-1.5-1.5-3.8,0-5.3l9.3-9.3c1.5-1.5,3.8-1.5,5.3,0
		s1.5,3.8,0,5.3l-9.3,9.3C-729.8,621.7-730.7,622.1-731.7,622.1z"/>
	<path id="XMLID_10_" class="st1" d="M-749.9,609.8c-1,0-1.9-0.4-2.6-1.1c-1.5-1.5-1.5-3.8,0-5.3l5.9-5.9c1.5-1.5,3.8-1.5,5.3,0
		s1.5,3.8,0,5.3l-5.9,5.9C-748,609.4-749,609.8-749.9,609.8z"/>
	<path id="XMLID_9_" class="st1" d="M-707.1,604.2c-1,0-1.9-0.4-2.6-1.1c-1.5-1.5-1.5-3.8,0-5.3l5.9-5.9c1.5-1.5,3.8-1.5,5.3,0
		s1.5,3.8,0,5.3l-5.9,5.9C-705.2,603.8-706.1,604.2-707.1,604.2z"/>
	<path id="XMLID_8_" class="st1" d="M-691.8,610.9c-1,0-1.9-0.4-2.6-1.1c-1.5-1.5-1.5-3.8,0-5.3l19.4-19.4c1.5-1.5,3.8-1.5,5.3,0
		s1.5,3.8,0,5.3l-19.4,19.4C-689.9,610.5-690.8,610.9-691.8,610.9z"/>
	<path id="XMLID_7_" class="st1" d="M-663.4,578.2h-3.8c-2.1,0-3.7-1.7-3.7-3.7c0-2.1,1.7-3.7,3.7-3.7l0,0h3.7c4.9-0.1,9.5-2,13-5.5
		s5.4-8.2,5.4-13.1c0-10.3-8.4-18.6-18.7-18.6c-0.5,0-1,0-1.3,0.1c-1,0.1-2-0.3-2.7-0.9c-0.7-0.7-1.2-1.6-1.3-2.6
		c-1.1-16.8-15.1-30-32-30c-11.3,0-21.6,5.8-27.4,15.5c-0.6,1-1.6,1.6-2.7,1.8c-1.1,0.1-2.3-0.3-3.1-1.1c-1.9-2-4.5-3-7.3-3
		c-5.7,0-10.3,4.6-10.3,10.3c0,1.6,0.4,3.2,1.1,4.6c0.6,1.1,0.5,2.5-0.1,3.6s-1.8,1.8-3.1,1.8c-10,0.4-17.9,8.6-17.9,18.6
		c0,10.3,8.3,18.6,18.5,18.6h4.6c2.1,0,3.7,1.7,3.7,3.7s-1.7,3.7-3.7,3.7h-4.6c-14.3,0-26-11.7-26-26.1c0-12.4,8.6-22.8,20.2-25.4
		c-0.2-1-0.3-2.1-0.3-3.2c0-9.8,8-17.7,17.7-17.7c3.3,0,6.4,0.9,9.1,2.5c7.4-9.8,18.9-15.6,31.5-15.6c19.6,0,36.1,14.4,39.1,33.5
		c13.6,0.9,24.4,12.2,24.4,26c0,6.9-2.7,13.4-7.5,18.3C-650,575.3-656.5,578.1-663.4,578.2L-663.4,578.2z"/>
</g>
<g>
	<path id="XMLID_49_" class="st1" d="M753.4-224.1c-1,0-1.9-0.4-2.6-1.1c-1.5-1.5-1.5-3.8,0-5.3l9.3-9.3c1.5-1.5,3.8-1.5,5.3,0
		s1.5,3.8,0,5.3l-9.3,9.3C755.3-224.5,754.4-224.1,753.4-224.1z"/>
	<path id="XMLID_41_" class="st1" d="M721-245.3c-1,0-1.9-0.4-2.6-1.1c-1.5-1.5-1.5-3.8,0-5.3l5.9-5.9c1.5-1.5,3.8-1.5,5.3,0
		s1.5,3.8,0,5.3l-5.9,5.9C722.9-245.7,721.9-245.3,721-245.3z"/>
	<path id="XMLID_40_" class="st1" d="M772.8-245.3c-1,0-1.9-0.4-2.6-1.1c-1.5-1.5-1.5-3.8,0-5.3l5.9-5.9c1.5-1.5,3.8-1.5,5.3,0
		s1.5,3.8,0,5.3l-5.9,5.9C774.7-245.7,773.7-245.3,772.8-245.3z"/>
	<path id="XMLID_5_" class="st1" d="M789.5-236c-1,0-1.9-0.4-2.6-1.1c-1.5-1.5-1.5-3.8,0-5.3l15.3-15.3c1.5-1.5,3.8-1.5,5.3,0
		s1.5,3.8,0,5.3l-15.3,15.3C791.5-236.3,790.5-236,789.5-236z"/>
	<path id="XMLID_4_" class="st1" d="M733.3-231.9c-1,0-1.9-0.4-2.6-1.1c-1.5-1.5-1.5-3.8,0-5.3l19.4-19.4c1.5-1.5,3.8-1.5,5.3,0
		s1.5,3.8,0,5.3L736-233C735.2-232.2,734.2-231.9,733.3-231.9z"/>
	<path id="XMLID_3_" class="st1" d="M721.7-263.9c-14.3-0.1-26-11.8-26-26.1c0-12.4,8.6-22.8,20.2-25.4c-0.2-1-0.3-2.1-0.3-3.2
		c0-9.8,8-17.7,17.7-17.7c3.2,0,6.4,0.9,9.1,2.5c7.4-9.8,18.9-15.6,31.5-15.6c19.6,0,36.1,14.4,39,33.5c13.6,0.9,24.3,12.2,24.3,26
		c0,14.2-11.6,25.9-25.8,26.1L721.7-263.9z M733.4-328.9c-5.7,0-10.3,4.6-10.3,10.3c0,1.6,0.4,3.2,1.1,4.6c0.6,1.1,0.5,2.5-0.1,3.6
		c-0.6,1.1-1.8,1.8-3.1,1.8c-10,0.4-17.9,8.6-17.9,18.6c0,10.2,8.3,18.6,18.6,18.6h89.7c10.1-0.1,18.4-8.5,18.4-18.6
		c0-10.3-8.4-18.6-18.6-18.6c-0.4,0-0.8,0-1.3,0.1c-1,0.1-2-0.3-2.7-0.9c-0.7-0.7-1.2-1.6-1.3-2.6c-1.1-16.8-15.1-30-32-30
		c-11.3,0-21.6,5.8-27.4,15.5c-0.6,1-1.6,1.6-2.7,1.8c-1.1,0.1-2.3-0.3-3.1-1.1C738.8-327.8,736.2-328.9,733.4-328.9z"/>
	<path id="XMLID_2_" class="st1" d="M693.7-288.5c-7.1-2-12.4-8.5-12.4-16.2c0-9,7.1-16.4,16.1-16.8c1.1,0,2.2-0.7,2.8-1.6
		c0.6-1,0.6-2.2,0.1-3.2c-0.7-1.3-1-2.7-1-4.2c0-5.1,4.2-9.3,9.3-9.3c2.5,0,4.8,1,6.6,2.7c0.7,0.7,1.8,1.1,2.8,1s1.9-0.7,2.5-1.6
		c5.3-8.7,14.5-13.9,24.7-13.9c4.9,0,9.5,1.2,13.5,3.4c2.8-1.1,5.7-1.8,8.7-2.3c-6.1-4.9-13.8-7.8-22.2-7.8
		c-11.3,0-21.6,5.2-28.3,14.1c-2.4-1.5-5.2-2.2-8.2-2.2c-8.8,0-16,7.2-16,16c0,1,0.1,1.9,0.3,2.9c-10.5,2.4-18.2,11.7-18.2,22.9
		c0,11.9,9,21.8,20.6,23.3C694.4-283.6,693.9-286,693.7-288.5z"/>
</g>
<g>
	<path id="XMLID_53_" class="st1" d="M305.7-232.2c-14.3-0.1-26-11.8-26-26.1c0-12.4,8.6-22.8,20.2-25.4c-0.2-1-0.3-2.1-0.3-3.2
		c0-9.8,8-17.7,17.7-17.7c3.2,0,6.4,0.9,9.1,2.5c7.4-9.8,18.9-15.6,31.5-15.6c19.6,0,36.1,14.4,39,33.5c13.6,0.9,24.3,12.2,24.3,26
		c0,14.2-11.6,25.9-25.8,26.1L305.7-232.2z M317.4-297.2c-5.7,0-10.3,4.6-10.3,10.3c0,1.6,0.4,3.2,1.1,4.6c0.6,1.1,0.5,2.5-0.1,3.6
		c-0.6,1.1-1.8,1.8-3.1,1.8c-10,0.4-17.9,8.6-17.9,18.6c0,10.2,8.3,18.6,18.6,18.6h89.7c10.1-0.1,18.4-8.5,18.4-18.6
		c0-10.3-8.4-18.6-18.6-18.6c-0.4,0-0.8,0-1.3,0.1c-1,0.1-2-0.3-2.7-0.9c-0.7-0.7-1.2-1.6-1.3-2.6c-1.1-16.8-15.1-30-32-30
		c-11.3,0-21.6,5.8-27.4,15.5c-0.6,1-1.6,1.6-2.7,1.8c-1.1,0.1-2.3-0.3-3.1-1.1C322.8-296.1,320.2-297.2,317.4-297.2z"/>
	<path id="XMLID_52_" class="st1" d="M277.7-256.8c-7.1-2-12.4-8.5-12.4-16.2c0-9,7.1-16.4,16.1-16.8c1.1,0,2.2-0.7,2.8-1.6
		c0.6-1,0.6-2.2,0.1-3.2c-0.7-1.3-1-2.7-1-4.2c0-5.1,4.2-9.3,9.3-9.3c2.5,0,4.8,1,6.6,2.7c0.7,0.7,1.8,1.1,2.8,1
		c1-0.1,1.9-0.7,2.5-1.6c5.3-8.7,14.5-13.9,24.7-13.9c4.9,0,9.5,1.2,13.5,3.4c2.8-1.1,5.7-1.8,8.7-2.3c-6.1-4.9-13.8-7.8-22.2-7.8
		c-11.3,0-21.6,5.2-28.3,14.1c-2.4-1.5-5.2-2.2-8.2-2.2c-8.8,0-16,7.2-16,16c0,1,0.1,1.9,0.3,2.9c-10.5,2.4-18.2,11.7-18.2,22.9
		c0,11.9,9,21.8,20.6,23.3C278.4-251.9,277.9-254.3,277.7-256.8z"/>
</g>
<g>
	<path id="XMLID_128_" class="st1" d="M481.3-280.7c-7.1-2-12.4-8.5-12.4-16.2c0-9,7.1-16.4,16.1-16.8c1.1,0,2.2-0.7,2.8-1.6
		c0.6-1,0.6-2.2,0.1-3.2c-0.7-1.3-1-2.7-1-4.2c0-5.1,4.2-9.3,9.3-9.3c2.5,0,4.8,1,6.6,2.7c0.7,0.7,1.8,1.1,2.8,1s1.9-0.7,2.5-1.6
		c5.3-8.7,14.5-13.9,24.7-13.9c4.9,0,9.5,1.2,13.5,3.4c2.8-1.1,5.7-1.8,8.7-2.3c-6.1-4.9-13.8-7.8-22.2-7.8
		c-11.3,0-21.6,5.2-28.3,14.1c-2.4-1.5-5.2-2.2-8.2-2.2c-8.8,0-16,7.2-16,16c0,1,0.1,1.9,0.3,2.9c-10.5,2.4-18.2,11.7-18.2,22.9
		c0,11.9,9,21.8,20.6,23.3C482-275.8,481.5-278.2,481.3-280.7z"/>
	<path id="XMLID_127_" class="st1" d="M599-256.2h-3.9c-2.1,0-3.7-1.7-3.7-3.7c0-2.1,1.7-3.7,3.7-3.7l0,0h3.9
		c10.2-0.1,18.4-8.5,18.4-18.6c0-10.3-8.4-18.6-18.6-18.6c-0.4,0-0.9,0-1.3,0.1c-1,0.1-2-0.3-2.7-0.9c-0.7-0.7-1.2-1.6-1.3-2.6
		c-1.1-16.8-15.1-30-32-30c-11.3,0-21.6,5.8-27.4,15.5c-0.6,1-1.6,1.6-2.7,1.8c-1.1,0.1-2.3-0.3-3.1-1.1c-1.9-2-4.5-3-7.3-3
		c-5.7,0-10.3,4.6-10.3,10.3c0,1.6,0.4,3.2,1.1,4.6c0.6,1.1,0.5,2.5-0.1,3.6s-1.8,1.8-3.1,1.8c-10,0.4-17.9,8.6-17.9,18.6
		c0,10.3,8.3,18.6,18.5,18.6h3.8c2.1,0,3.7,1.7,3.7,3.7c0,2.1-1.7,3.7-3.7,3.7h-3.8c-14.3,0-26-11.7-26-26.1
		c0-12.4,8.6-22.8,20.2-25.4c-0.2-1-0.3-2.1-0.3-3.2c0-9.8,8-17.7,17.7-17.7c3.3,0,6.4,0.9,9.1,2.5c7.4-9.8,18.9-15.6,31.5-15.6
		c19.6,0,36.1,14.4,39,33.5c13.6,0.9,24.3,12.2,24.3,26C624.9-268.1,613.3-256.4,599-256.2L599-256.2z"/>
	<path id="XMLID_118_" class="st1" d="M519-221.2c-1,0-1.9-0.4-2.6-1.1c-1.5-1.5-1.5-3.8,0-5.2l16-16h-9.6c-1.5,0-2.9-1-3.5-2.4
		s-0.2-3.1,0.9-4.1l23.5-22.3c1.5-1.4,3.9-1.4,5.3,0.1c1.4,1.5,1.4,3.6-0.1,5l-16.7,15.6h9.3c1.5,0,2.9,1.1,3.4,2.5
		c0.6,1.4,0.3,3.1-0.8,4.2l-22.4,22.4C520.9-221.6,520-221.2,519-221.2z"/>
	<path id="XMLID_117_" class="st1" d="M557-234.3c-1,0-1.9-0.4-2.6-1.1c-1.5-1.5-1.5-3.8,0-5.2l16-15.9h-9.6c-1.5,0-2.9-1-3.5-2.4
		s-0.2-3.1,0.9-4.1l23.5-22.4c1.5-1.4,3.8-1.4,5.3,0.1c1.4,1.5,1.4,3.6-0.1,5.1l-16.7,15.8h9.3c1.5,0,2.9,1.1,3.4,2.5
		c0.6,1.4,0.3,3.1-0.8,4.2l-22.4,22.4C558.9-234.7,558-234.3,557-234.3z"/>
	<path id="XMLID_109_" class="st1" d="M538-216.4c-1,0-1.9-0.4-2.6-1.1c-1.5-1.5-1.5-3.8,0-5.3l9.3-9.3c1.5-1.5,3.8-1.5,5.3,0
		s1.5,3.8,0,5.3l-9.3,9.3C539.9-216.8,539-216.4,538-216.4z"/>
	<path id="XMLID_108_" class="st1" d="M504.1-228.7c-1,0-1.9-0.4-2.6-1.1c-1.5-1.5-1.5-3.8,0-5.3l5.9-5.9c1.5-1.5,3.8-1.5,5.3,0
		s1.5,3.8,0,5.3l-5.9,5.9C506-229.1,505-228.7,504.1-228.7z"/>
	<path id="XMLID_104_" class="st1" d="M570.8-223.5c-1,0-1.9-0.4-2.6-1.1c-1.5-1.5-1.5-3.8,0-5.3l19.4-19.4c1.5-1.5,3.8-1.5,5.3,0
		s1.5,3.8,0,5.3l-19.4,19.4C572.7-223.8,571.8-223.5,570.8-223.5z"/>
</g>
</svg>
